<?xml version="1.0" encoding="UTF-8"?>
<svg version="1.1" xmlns="http://www.w3.org/2000/svg" width="1024" height="1024">
<path d="M0 0 C0.7420166 -0.02255859 1.4840332 -0.04511719 2.24853516 -0.06835938 C5.75207573 -0.05241607 7.80459463 0.15831073 10.66796875 2.24609375 C12.89477091 5.45749738 12.73209951 7.62530341 12.1875 11.4375 C9.84774431 14.70959489 8.501138 15.37590443 4.5078125 16.16015625 C3.11089657 16.29086956 1.71220869 16.40368977 0.3125 16.5 C-6.38676543 17.00337709 -11.5707629 17.90079749 -16.1875 23.125 C-16.991875 24.2696875 -16.991875 24.2696875 -17.8125 25.4375 C-16.99401958 25.19489488 -16.99401958 25.19489488 -16.15900421 24.94738865 C-13.47064375 24.36321561 -11.02054036 24.2973968 -8.26843262 24.27928162 C-6.57279175 24.26459839 -6.57279175 24.26459839 -4.84289551 24.24961853 C-3.60503296 24.24386307 -2.36717041 24.2381076 -1.09179688 24.23217773 C0.21692383 24.22227814 1.52564453 24.21237854 2.87402344 24.20217896 C6.48098627 24.17506483 10.08796202 24.15404863 13.69497108 24.13417697 C17.53198042 24.11209899 21.36895275 24.08476156 25.20593262 24.05812073 C31.70953613 24.01373231 38.21315448 23.97306005 44.71679688 23.93481445 C51.26369544 23.89629753 57.81056505 23.85487949 64.35742188 23.80981445 C65.14850625 23.80437791 65.93959063 23.79894137 66.75464725 23.79334009 C67.54428081 23.78791212 68.33391436 23.78248416 69.1474762 23.77689171 C84.93386597 23.66838678 100.72024845 23.57711848 116.5068512 23.50583458 C124.76495059 23.46797102 133.02282067 23.41902649 141.28074884 23.35357207 C147.52785956 23.30473145 153.77496302 23.27144739 160.02220154 23.24379158 C162.56859282 23.22993521 165.11496226 23.21086759 167.66127014 23.18603325 C201.45890844 22.8640794 201.45890844 22.8640794 210.1875 28.4375 C212.12436496 31.49899623 213.76835689 34.56795566 215.33984375 37.828125 C217.72604989 42.90692876 217.72604989 42.90692876 222.375 45.6875 C223.303125 45.935 224.23125 46.1825 225.1875 46.4375 C226.54693765 48.748544 227.07012793 50.8606052 227.6015625 53.47265625 C228.4200018 57.76021148 228.4200018 57.76021148 231.0625 61.0625 C233.18767643 61.67228148 233.18767643 61.67228148 234.83203125 60.48828125 C238.16511806 59.00138183 241.41127942 59.01319079 245 59 C245.71687988 58.99613281 246.43375977 58.99226563 247.17236328 58.98828125 C253.15972757 59.11966113 255.93666045 60.38908138 260.1875 64.4375 C260.8475 64.4375 261.5075 64.4375 262.1875 64.4375 C263.34320704 60.97037889 263.51585293 57.8960044 263.75 54.25 C263.83378906 52.97769531 263.91757812 51.70539063 264.00390625 50.39453125 C264.06449219 49.41871094 264.12507813 48.44289063 264.1875 47.4375 C270.4410545 46.23489336 270.4410545 46.23489336 273.375 47.03125 C275.1875 48.4375 275.1875 48.4375 275.796875 51.2578125 C275.84328125 52.34835937 275.8896875 53.43890625 275.9375 54.5625 C275.99421875 55.65820312 276.0509375 56.75390625 276.109375 57.8828125 C276.13515625 58.72585938 276.1609375 59.56890625 276.1875 60.4375 C277.6725 59.9425 277.6725 59.9425 279.1875 59.4375 C283.52284396 58.83873746 287.51059143 58.4746108 291.3984375 60.70703125 C293.17792123 62.19961862 294.75610791 63.60797236 296.1875 65.4375 C296.1875 66.0975 296.1875 66.7575 296.1875 67.4375 C297.8375 67.7675 299.4875 68.0975 301.1875 68.4375 C303.23288889 61.48317778 303.76919634 54.65874213 304.1875 47.4375 C307.4875 47.4375 310.7875 47.4375 314.1875 47.4375 C320.33773117 59.0321981 326.37628848 70.66898506 332.1875 82.4375 C334.85547153 81.10351424 335.01780614 79.92251947 336.1875 77.1875 C338.82843578 71.21772001 341.54412548 65.28688385 344.3125 59.375 C344.74433594 58.43430664 345.17617188 57.49361328 345.62109375 56.52441406 C346.03746094 55.63850586 346.45382812 54.75259766 346.8828125 53.83984375 C347.4399292 52.64089478 347.4399292 52.64089478 348.00830078 51.41772461 C349.1875 49.4375 349.1875 49.4375 352.1875 47.4375 C355.1575 47.4375 358.1275 47.4375 361.1875 47.4375 C361.1875 63.6075 361.1875 79.7775 361.1875 96.4375 C357.5575 96.7675 353.9275 97.0975 350.1875 97.4375 C348.47306781 95.72306781 348.95697033 93.43304759 348.87109375 91.08984375 C348.82919922 90.01025391 348.78730469 88.93066406 348.74414062 87.81835938 C348.70482422 86.68205078 348.66550781 85.54574219 348.625 84.375 C348.58181641 83.23482422 348.53863281 82.09464844 348.49414062 80.91992188 C348.38767161 78.09257805 348.28565793 75.26514262 348.1875 72.4375 C342.97160452 76.82637061 340.65582746 82.11570062 337.875 88.25 C337.1934082 89.71856445 337.1934082 89.71856445 336.49804688 91.21679688 C335.38466437 93.61935913 334.28156598 96.02609578 333.1875 98.4375 C331.5375 98.4375 329.8875 98.4375 328.1875 98.4375 C326.43268586 95.12752936 324.6845557 91.81407131 322.9375 88.5 C322.44636719 87.57380859 321.95523437 86.64761719 321.44921875 85.69335938 C318.46811966 80.02927111 315.69576223 74.32681962 313.1875 68.4375 C312.8575 68.4375 312.5275 68.4375 312.1875 68.4375 C312.30726044 73.060022 312.43157629 77.68239291 312.55981445 82.3046875 C312.60268286 83.87171238 312.64438301 85.43876973 312.68481445 87.00585938 C312.87782632 94.45945347 313.08762299 101.9161903 313.53515625 109.359375 C313.58808838 110.2781543 313.64102051 111.19693359 313.69555664 112.14355469 C314.26494116 114.79861022 315.10675525 115.75118118 317.1875 117.4375 C318.6725 114.4675 318.6725 114.4675 320.1875 111.4375 C321.8375 112.0975 323.4875 112.7575 325.1875 113.4375 C324.8125 115.375 324.8125 115.375 324.1875 117.4375 C323.5275 117.7675 322.8675 118.0975 322.1875 118.4375 C322.125625 119.200625 322.06375 119.96375 322 120.75 C321.1875 123.4375 321.1875 123.4375 319.640625 124.55078125 C318.4027638 125.21319045 317.14862853 125.84623685 315.87890625 126.4453125 C313.8504622 127.46961955 313.8504622 127.46961955 312.1875 130.4375 C310.52407163 128.77407163 310.82701903 126.6549291 310.625 124.375 C310.49931641 122.99634766 310.49931641 122.99634766 310.37109375 121.58984375 C310.31050781 120.87957031 310.24992187 120.16929687 310.1875 119.4375 C308.8675 119.1075 307.5475 118.7775 306.1875 118.4375 C306.001875 119.695625 305.81625 120.95375 305.625 122.25 C305.52058594 122.95769531 305.41617187 123.66539062 305.30859375 124.39453125 C305.04845201 126.6400342 305.04845201 126.6400342 306.1875 129.4375 C299.5625 129.5625 299.5625 129.5625 296.1875 128.4375 C295.79046875 128.93507813 295.3934375 129.43265625 294.984375 129.9453125 C293.1875 131.4375 293.1875 131.4375 290.953125 131.6171875 C285.5008167 130.95681476 281.10847238 129.89798619 276.1875 127.4375 C275.83171875 127.91960937 275.4759375 128.40171875 275.109375 128.8984375 C272.31246482 131.13823955 269.9784933 130.91812474 266.4375 131.0625 C261.61641798 131.28164009 256.95767258 131.70126758 252.1875 132.4375 C250.66553282 132.65482731 249.14338461 132.87088919 247.62109375 133.0859375 C245.95568149 133.3277969 244.29031773 133.56999052 242.625 133.8125 C241.4174707 133.98265625 241.4174707 133.98265625 240.18554688 134.15625 C232.77623657 135.24364293 225.49882467 136.82937249 218.1875 138.4375 C215.84281651 138.93922562 213.49776588 139.4392387 211.15234375 139.9375 C209.99283203 140.185 208.83332031 140.4325 207.63867188 140.6875 C205.29248779 141.18829749 202.94613282 141.68829501 200.59960938 142.1875 C199.44138672 142.435 198.28316406 142.6825 197.08984375 142.9375 C195.9385498 143.18242188 194.78725586 143.42734375 193.60107422 143.6796875 C191.37655816 144.17352943 189.15858979 144.69818001 186.94970703 145.2578125 C171.47356801 149.154631 155.56783886 148.59088929 139.71362305 148.59863281 C137.48135803 148.60327078 135.24909379 148.60829673 133.01683044 148.61367798 C126.99657839 148.62669917 120.97633743 148.63322522 114.95607352 148.63768864 C111.1894572 148.64063263 107.42284384 148.64473958 103.65622902 148.64919281 C93.20119603 148.66127613 82.74616511 148.67166976 72.2911253 148.6750679 C71.62505236 148.67528747 70.95897943 148.67550703 70.27272247 148.67573325 C69.60521042 148.67595153 68.93769838 148.67616981 68.24995869 148.6763947 C66.89767754 148.67683814 65.54539639 148.67728471 64.19311523 148.67773438 C63.52236069 148.6779558 62.85160615 148.67817723 62.16052572 148.67840537 C51.27210712 148.68236053 40.38375513 148.6998478 29.4953623 148.7230939 C18.28285503 148.74683695 7.07038005 148.75901305 -4.1421563 148.76043582 C-10.42447952 148.76148244 -16.70670819 148.76736168 -22.98900795 148.78525543 C-28.89148716 148.80174484 -34.79380073 148.80388732 -40.69629478 148.79511642 C-42.85777607 148.79434686 -45.01926633 148.79867812 -47.1807251 148.80857468 C-50.13905601 148.82132295 -53.09680252 148.81540192 -56.05513 148.80499268 C-56.90290601 148.81304908 -57.75068201 148.82110548 -58.62414819 148.82940602 C-65.0024842 148.7771839 -72.52486559 148.18819115 -77.59250051 143.94821286 C-81.27596906 139.81091515 -81.31364365 135.42563341 -81.18359375 130.0859375 C-80.8125 127.4375 -80.8125 127.4375 -78.8125 122.4375 C-88.3825 122.4375 -97.9525 122.4375 -107.8125 122.4375 C-108.1106424 126.2138932 -108.1106424 126.2138932 -106.8125 128.4375 C-106.19702705 132.69906584 -105.86256396 136.73875444 -108.01171875 140.58203125 C-111.10201799 144.27949256 -114.06965306 147.05968387 -118.99609375 147.73828125 C-123.72387023 147.76286241 -127.02144591 147.61709375 -130.8125 144.4375 C-130.8125 143.7775 -130.8125 143.1175 -130.8125 142.4375 C-131.4725 142.4375 -132.1325 142.4375 -132.8125 142.4375 C-135.08137638 137.1737068 -136.29780976 134.13118742 -134.8125 128.4375 C-134.626875 127.32375 -134.44125 126.21 -134.25 125.0625 C-134.105625 124.19625 -133.96125 123.33 -133.8125 122.4375 C-134.53695312 122.37433594 -135.26140625 122.31117188 -136.0078125 122.24609375 C-144.90280564 121.11939462 -144.90280564 121.11939462 -148.375 117.5 C-150.44110299 114.49616222 -151.28149614 111.97297861 -151.875 108.38769531 C-152.03621338 107.41537964 -152.19742676 106.44306396 -152.36352539 105.44128418 C-153.07319593 100.6933606 -153.68538514 95.93906146 -154.25 91.171875 C-154.37560303 90.13540833 -154.50120605 89.09894165 -154.63061523 88.03106689 C-155.02766292 84.75024141 -155.42029982 81.46890816 -155.8125 78.1875 C-156.2045528 74.92862161 -156.59755864 71.66986046 -156.99124146 68.41117859 C-157.24511854 66.30955079 -157.49828332 64.2078368 -157.7507019 62.10603333 C-158.58886244 55.16127963 -159.49858398 48.23050119 -160.49267578 41.30639648 C-161.05102719 36.2978565 -161.17806602 32.22686237 -158 28.0625 C-154.33205175 25.33773844 -151.71232735 24.18362896 -147.11317444 24.2306366 C-145.70218727 24.2373513 -145.70218727 24.2373513 -144.26269531 24.24420166 C-143.23764893 24.25924744 -142.21260254 24.27429321 -141.15649414 24.28979492 C-139.52906532 24.30140404 -139.52906532 24.30140404 -137.86875916 24.31324768 C-135.51262498 24.33090449 -133.1565206 24.35295682 -130.80046272 24.3788662 C-127.07280984 24.41823113 -123.34534336 24.44264012 -119.61753845 24.46247864 C-109.01863507 24.5205773 -98.42004682 24.59755528 -87.8215332 24.70483398 C-81.3395411 24.76921917 -74.85777614 24.80931516 -68.37551689 24.83400917 C-65.90388335 24.8482851 -63.43228567 24.8719156 -60.9608326 24.90501976 C-57.50623282 24.95065251 -54.052763 24.96549644 -50.59790039 24.97338867 C-49.57487823 24.99450714 -48.55185608 25.01562561 -47.49783325 25.03738403 C-41.65698504 25.02328708 -41.65698504 25.02328708 -36.72679138 22.02632141 C-35.16556212 19.914969 -33.62228307 17.82345793 -32.1875 15.625 C-27.256895 8.93255928 -19.63021974 3.0936678 -11.54296875 0.83984375 C-7.69432361 0.27273295 -3.88704491 0.08184976 0 0 Z M296.1875 119.4375 C297.1875 121.4375 297.1875 121.4375 297.1875 121.4375 Z " fill="#635676" transform="translate(365.8125,437.5625)"/>
<path d="M0 0 C0.33 0.99 0.66 1.98 1 3 C4.24947861 3.19738568 7.49958873 3.3811754 10.75 3.5625 C11.67039063 3.61857422 12.59078125 3.67464844 13.5390625 3.73242188 C14.42851562 3.78076172 15.31796875 3.82910156 16.234375 3.87890625 C17.45979004 3.94960327 17.45979004 3.94960327 18.70996094 4.02172852 C20.9424063 4.09811932 20.9424063 4.09811932 22.7964325 3.50672913 C25.43527549 2.89990469 27.83866702 2.87281124 30.54711914 2.87060547 C32.21388451 2.86587723 32.21388451 2.86587723 33.9143219 2.86105347 C35.10919724 2.8630777 36.30407257 2.86510193 37.53515625 2.8671875 C39.38046181 2.86575241 39.38046181 2.86575241 41.26304626 2.86428833 C43.86294608 2.86360795 46.46284759 2.86545237 49.06274414 2.86962891 C51.73111323 2.87321214 54.39928034 2.87418921 57.06762695 2.86962891 C60.91099084 2.86346473 64.75428969 2.8641962 68.59765625 2.8671875 C69.79455582 2.86516327 70.99145538 2.86313904 72.22462463 2.86105347 C73.33264938 2.86420563 74.44067413 2.86735779 75.58227539 2.87060547 C77.04643639 2.87179886 77.04643639 2.87179886 78.54017639 2.87301636 C81 3 81 3 84 4 C85.89212737 4.22179785 87.78884472 4.40614015 89.6875 4.5625 C90.68136719 4.64628906 91.67523438 4.73007812 92.69921875 4.81640625 C93.45847656 4.87699219 94.21773438 4.93757812 95 5 C95 5.33 95 5.66 95 6 C92.03 6 89.06 6 86 6 C86.9590625 7.1446875 86.9590625 7.1446875 87.9375 8.3125 C91.44690944 12.88536685 91.71023081 17.41961506 91 23 C89.90817873 25.61751038 88.60876311 27.63712918 87 30 C88.11375 29.79375 89.2275 29.5875 90.375 29.375 C95.48095045 28.70701724 100.05118167 29.77293644 105 31 C105 31.33 105 31.66 105 32 C100.99813807 32.02489435 96.99630672 32.04295127 92.99438477 32.05493164 C91.63565281 32.05993113 90.27692615 32.06673291 88.91821289 32.07543945 C86.95461415 32.08769842 84.99097459 32.09273487 83.02734375 32.09765625 C81.84906006 32.10289307 80.67077637 32.10812988 79.45678711 32.11352539 C70.15621884 31.80808262 70.15621884 31.80808262 67.22265625 29.7578125 C63.45040965 24.44872469 63.10545519 19.38422505 64 13 C64.66 11.35 65.32 9.7 66 8 C56.43 8 46.86 8 37 8 C36.7018576 11.7763932 36.7018576 11.7763932 38 14 C38.61547295 18.26156584 38.94993604 22.30125444 36.80078125 26.14453125 C33.71048201 29.84199256 30.74284694 32.62218387 25.81640625 33.30078125 C21.08862977 33.32536241 17.79105409 33.17959375 14 30 C14 29.34 14 28.68 14 28 C13.34 28 12.68 28 12 28 C8.17632733 19.1290794 8.17632733 19.1290794 10 14 C12.4375 11.25 12.4375 11.25 15 9 C15.66 8.34 16.32 7.68 17 7 C16.11957031 6.96261719 15.23914063 6.92523437 14.33203125 6.88671875 C13.17058594 6.82097656 12.00914062 6.75523437 10.8125 6.6875 C9.66394531 6.62949219 8.51539063 6.57148437 7.33203125 6.51171875 C3.85319896 5.97745494 1.85468362 5.0052674 -1 3 C-0.67 2.01 -0.34 1.02 0 0 Z " fill="#A297BB" transform="translate(221,552)"/>
<path d="M0 0 C0 16.17 0 32.34 0 49 C-3.63 49.33 -7.26 49.66 -11 50 C-12.71443219 48.28556781 -12.23052967 45.99554759 -12.31640625 43.65234375 C-12.35830078 42.57275391 -12.40019531 41.49316406 -12.44335938 40.38085938 C-12.48267578 39.24455078 -12.52199219 38.10824219 -12.5625 36.9375 C-12.60568359 35.79732422 -12.64886719 34.65714844 -12.69335938 33.48242188 C-12.79982839 30.65507805 -12.90184207 27.82764262 -13 25 C-18.21589548 29.38887061 -20.53167254 34.67820062 -23.3125 40.8125 C-23.76689453 41.79154297 -24.22128906 42.77058594 -24.68945312 43.77929688 C-25.80283563 46.18185913 -26.90593402 48.58859578 -28 51 C-29.65 51 -31.3 51 -33 51 C-34.75481414 47.69002936 -36.5029443 44.37657131 -38.25 41.0625 C-38.98669922 39.67321289 -38.98669922 39.67321289 -39.73828125 38.25585938 C-47.98250933 22.59182603 -47.98250933 22.59182603 -49.25 15.9375 C-49.47429688 14.80634766 -49.47429688 14.80634766 -49.703125 13.65234375 C-49.85007812 12.83443359 -49.85007812 12.83443359 -50 12 C-50.66 12 -51.32 12 -52 12 C-52 23.88 -52 35.76 -52 48 C-52.99 48 -53.98 48 -55 48 C-55 32.49 -55 16.98 -55 1 C-52.69 1 -50.38 1 -48 1 C-46.39479066 4.04111749 -44.79102164 7.08299233 -43.1875 10.125 C-42.73568359 10.9809375 -42.28386719 11.836875 -41.81835938 12.71875 C-39.92936807 16.303697 -38.05603075 19.88591482 -36.26953125 23.5234375 C-35.1666974 25.98664449 -35.1666974 25.98664449 -33.5 27.5 C-31.33073021 29.66926979 -30.2866422 32.24290958 -29 35 C-26.33202847 33.66601424 -26.16969386 32.48501947 -25 29.75 C-22.35906422 23.78022001 -19.64337452 17.84938385 -16.875 11.9375 C-16.44316406 10.99680664 -16.01132812 10.05611328 -15.56640625 9.08691406 C-14.94185547 7.75805176 -14.94185547 7.75805176 -14.3046875 6.40234375 C-13.93327637 5.60304443 -13.56186523 4.80374512 -13.17919922 3.98022461 C-9.88309351 -1.55491274 -6.66220358 0 0 0 Z " fill="#58595A" transform="translate(727,485)"/>
<path d="M0 0 C1.175625 0.0825 2.35125 0.165 3.5625 0.25 C6.12937367 4.1003105 5.39538724 5.83569763 4.5625 10.25 C7.2025 10.25 9.8425 10.25 12.5625 10.25 C13.0575 12.725 13.0575 12.725 13.5625 15.25 C10.9225 16.24 8.2825 17.23 5.5625 18.25 C5.5625 25.84 5.5625 33.43 5.5625 41.25 C8.2025 41.58 10.8425 41.91 13.5625 42.25 C13.5625 43.9 13.5625 45.55 13.5625 47.25 C9.87837001 49.09206499 5.59267014 48.6117633 1.5625 48.25 C-2.12373011 46.63727433 -3.19105 45.619675 -5.4375 42.25 C-6.81892076 34.03966907 -6.55794721 25.5474743 -6.4375 17.25 C-7.37722656 17.59224609 -7.37722656 17.59224609 -8.3359375 17.94140625 C-9.15320313 18.22886719 -9.97046875 18.51632812 -10.8125 18.8125 C-11.62460937 19.10253906 -12.43671875 19.39257812 -13.2734375 19.69140625 C-15.4375 20.25 -15.4375 20.25 -17.4375 19.25 C-19.43710012 19.210008 -21.43797242 19.20653201 -23.4375 19.25 C-24.77653544 21.92807088 -24.63415402 24.10282366 -24.71875 27.09765625 C-24.75613281 28.25974609 -24.79351563 29.42183594 -24.83203125 30.61914062 C-24.90245521 33.08528328 -24.97276736 35.55142913 -25.04296875 38.01757812 C-25.08035156 39.17837891 -25.11773438 40.33917969 -25.15625 41.53515625 C-25.20168945 43.14209351 -25.20168945 43.14209351 -25.24804688 44.78149414 C-25.4375 47.25 -25.4375 47.25 -26.4375 48.25 C-27.95219448 48.48192865 -29.47504562 48.66215238 -31 48.8125 C-31.82628906 48.89628906 -32.65257812 48.98007812 -33.50390625 49.06640625 C-34.14199219 49.12699219 -34.78007813 49.18757812 -35.4375 49.25 C-35.46214849 43.85653012 -35.48033531 38.46309275 -35.49243164 33.06958008 C-35.49747231 31.23331125 -35.50430477 29.39704646 -35.51293945 27.56079102 C-35.52501672 24.92723599 -35.53073081 22.29373384 -35.53515625 19.66015625 C-35.54031754 18.83411392 -35.54547882 18.00807159 -35.55079651 17.15699768 C-35.55099205 15.18763632 -35.49954152 13.21838386 -35.4375 11.25 C-35.1075 10.92 -34.7775 10.59 -34.4375 10.25 C-32.43698505 10.50813096 -30.43633999 10.77048354 -28.4453125 11.09375 C-26.23046531 11.3970326 -26.23046531 11.3970326 -23.4375 10.25 C-20.11030753 10.18139809 -16.79591688 10.25255105 -13.46875 10.3125 C-10.38995029 10.39893023 -10.38995029 10.39893023 -7.4375 9.25 C-6.45538795 7.41696677 -6.45538795 7.41696677 -5.8125 5.25 C-4.16946699 0.30323396 -4.16946699 0.30323396 0 0 Z " fill="#242425" transform="translate(805.4375,486.75)"/>
<path d="M0 0 C2.94998208 1.87125729 4.84171364 3.93350646 5.8828125 7.24609375 C7.00457093 13.37891901 7.03221554 19.3983198 7.0078125 25.62109375 C7.01361328 27.13509766 7.01361328 27.13509766 7.01953125 28.6796875 C7.01824219 29.63746094 7.01695312 30.59523438 7.015625 31.58203125 C7.01449707 32.4539209 7.01336914 33.32581055 7.01220703 34.22412109 C6.8828125 36.24609375 6.8828125 36.24609375 5.8828125 37.24609375 C2.26222018 37.53965529 0.00577288 37.09673694 -3.1171875 35.24609375 C-4.1071875 35.90609375 -5.0971875 36.56609375 -6.1171875 37.24609375 C-12.22288561 37.98414517 -17.9971192 37.95814326 -23.1171875 34.24609375 C-25.54656042 31.33084625 -26.08211661 29.52666089 -26.5546875 25.74609375 C-26.02956162 21.54508672 -25.21365166 20.10436836 -22.1171875 17.24609375 C-16.10430124 13.73857677 -9.97403806 13.57261044 -3.1171875 13.24609375 C-3.7771875 10.93609375 -4.4371875 8.62609375 -5.1171875 6.24609375 C-7.77122814 5.20223679 -7.77122814 5.20223679 -11.1171875 5.24609375 C-12.89176886 6.5807465 -12.89176886 6.5807465 -14.5546875 8.30859375 C-16.3046875 10.0078125 -16.3046875 10.0078125 -18.1171875 11.24609375 C-22.0546875 10.62109375 -22.0546875 10.62109375 -25.1171875 9.24609375 C-24.9921875 6.99609375 -24.9921875 6.99609375 -24.1171875 4.24609375 C-17.33464517 -1.06198285 -8.35053999 -2.97353177 0 0 Z M-16.1171875 24.24609375 C-15.54266004 28.17685019 -15.54266004 28.17685019 -13.1171875 31.24609375 C-9.56117859 31.709921 -7.76728662 31.67379054 -4.7421875 29.68359375 C-2.55711215 26.40598073 -2.75322773 24.1040673 -3.1171875 20.24609375 C-4.20354019 18.9588735 -4.20354019 18.9588735 -6.8046875 18.87109375 C-11.33657901 19.38413807 -12.8555487 21.13977109 -16.1171875 24.24609375 Z " fill="#C7C8C8" transform="translate(757.1171875,497.75390625)"/>
<path d="M0 0 C3.12051271 2.28330198 5.1665376 4.2765747 6.5625 7.875 C7.0514788 12.34406478 6.93894436 16.76122524 6.8125 21.25 C6.79445313 22.46300781 6.77640625 23.67601562 6.7578125 24.92578125 C6.71082216 27.9096679 6.64513372 30.89192279 6.5625 33.875 C4.5825 33.875 2.6025 33.875 0.5625 33.875 C0.2325 32.885 -0.0975 31.895 -0.4375 30.875 C-1.406875 31.535 -2.37625 32.195 -3.375 32.875 C-7.70708443 35.30796863 -11.56361646 35.98854106 -16.4375 34.875 C-19.4595476 33.35565864 -21.52007465 31.66828631 -23.4375 28.875 C-24.38383299 25.96675716 -24.37473736 23.78506415 -23.4375 20.875 C-20.98057208 17.34221234 -18.52254562 15.23668187 -14.4375 13.875 C-12.04259014 13.80529948 -9.64582309 13.79051997 -7.25 13.8125 C-5.97769531 13.82152344 -4.70539062 13.83054687 -3.39453125 13.83984375 C-1.93080078 13.85724609 -1.93080078 13.85724609 -0.4375 13.875 C-0.72625 12.616875 -1.015 11.35875 -1.3125 10.0625 C-1.55613281 9.00095703 -1.55613281 9.00095703 -1.8046875 7.91796875 C-2.41757723 5.59757026 -2.41757723 5.59757026 -4.4375 2.875 C-8.50380753 2.34977449 -8.50380753 2.34977449 -12.4375 2.875 C-14.9779226 5.21330958 -14.9779226 5.21330958 -16.4375 7.875 C-19.4075 7.38 -19.4075 7.38 -22.4375 6.875 C-18.97922213 -2.80817804 -8.30779427 -2.71891449 0 0 Z " fill="#EEEDEF" transform="translate(527.4375,499.125)"/>
<path d="M0 0 C7.64082476 -0.02316372 15.28164588 -0.04093569 22.92249775 -0.05181217 C26.47039848 -0.05703216 30.0182752 -0.0641138 33.56616211 -0.07543945 C37.64437084 -0.08837663 41.72255433 -0.09323552 45.80078125 -0.09765625 C47.71338493 -0.10539818 47.71338493 -0.10539818 49.66462708 -0.11329651 C50.84562485 -0.11337204 52.02662262 -0.11344757 53.2434082 -0.11352539 C54.28487503 -0.115746 55.32634186 -0.11796661 56.39936829 -0.12025452 C59 0 59 0 62 1 C63.89212737 1.22179785 65.78884472 1.40614015 67.6875 1.5625 C68.68136719 1.64628906 69.67523438 1.73007812 70.69921875 1.81640625 C71.45847656 1.87699219 72.21773438 1.93757812 73 2 C73 2.33 73 2.66 73 3 C70.03 3 67.06 3 64 3 C64.639375 3.763125 65.27875 4.52625 65.9375 5.3125 C69.44690944 9.88536685 69.71023081 14.41961506 69 20 C67.90817873 22.61751038 66.60876311 24.63712918 65 27 C66.11375 26.79375 67.2275 26.5875 68.375 26.375 C73.48095045 25.70701724 78.05118167 26.77293644 83 28 C83 28.33 83 28.66 83 29 C78.99813807 29.02489435 74.99630672 29.04295127 70.99438477 29.05493164 C69.63565281 29.05993113 68.27692615 29.06673291 66.91821289 29.07543945 C64.95461415 29.08769842 62.99097459 29.09273487 61.02734375 29.09765625 C59.84906006 29.10289307 58.67077637 29.10812988 57.45678711 29.11352539 C47.79626114 28.79626114 47.79626114 28.79626114 45 26 C42.87160214 21.15198265 41.95267367 16.21857428 43 11 C44.58742114 8.18593526 46.36003146 5.88309683 49 4 C50.32 4 51.64 4 53 4 C53 3.34 53 2.68 53 2 C35.51 2 18.02 2 0 2 C0 1.34 0 0.68 0 0 Z " fill="#CABAE4" transform="translate(243,555)"/>
<path d="M0 0 C2.31 0 4.62 0 7 0 C7.33 5.28 7.66 10.56 8 16 C8.99 15.01 9.98 14.02 11 13 C15.82784389 11.61230649 19.82597256 11.48769712 24.4375 13.5 C29.19326324 18.13976902 30.17803897 22.47221116 30.29296875 28.93359375 C30.27319826 31.10175739 30.23767167 33.26982676 30.1875 35.4375 C30.16719727 37.1071582 30.16719727 37.1071582 30.14648438 38.81054688 C30.11132997 41.54087212 30.06212106 44.27017744 30 47 C27.36 47 24.72 47 22 47 C21.97494385 46.23333008 21.9498877 45.46666016 21.92407227 44.67675781 C21.80798577 41.20100717 21.68531634 37.72551908 21.5625 34.25 C21.52318359 33.0434375 21.48386719 31.836875 21.44335938 30.59375 C21.40146484 29.43359375 21.35957031 28.2734375 21.31640625 27.078125 C21.27974854 26.00981445 21.24309082 24.94150391 21.20532227 23.84082031 C21.03013091 21.41688848 20.68801513 19.32113288 20 17 C18.1128125 16.9690625 18.1128125 16.9690625 16.1875 16.9375 C15.47980469 16.92589844 14.77210938 16.91429687 14.04296875 16.90234375 C11.79694539 16.91736783 11.79694539 16.91736783 9 18 C7.94163339 21.17509982 7.79756211 23.64282383 7.68359375 26.98046875 C7.64169922 28.14384766 7.59980469 29.30722656 7.55664062 30.50585938 C7.51732422 31.72080078 7.47800781 32.93574219 7.4375 34.1875 C7.39431641 35.41404297 7.35113281 36.64058594 7.30664062 37.90429688 C7.2004691 40.93608381 7.09842048 43.96795315 7 47 C4.69 47 2.38 47 0 47 C0 31.49 0 15.98 0 0 Z " fill="#FAFBFC" transform="translate(632,486)"/>
<path d="M0 0 C3.24044458 2.56535196 4.69560167 4.086805 6 8 C6.08291953 9.9920303 6.10738177 11.98673713 6.09765625 13.98046875 C6.09443359 15.14384766 6.09121094 16.30722656 6.08789062 17.50585938 C6.07951172 18.72080078 6.07113281 19.93574219 6.0625 21.1875 C6.05798828 22.41404297 6.05347656 23.64058594 6.04882812 24.90429688 C6.03703065 27.93624668 6.02056921 30.96809906 6 34 C3.69 34 1.38 34 -1 34 C-1.01458252 33.26885986 -1.02916504 32.53771973 -1.04418945 31.78442383 C-1.1188291 28.45992629 -1.21543801 25.13641533 -1.3125 21.8125 C-1.33505859 20.66201172 -1.35761719 19.51152344 -1.38085938 18.32617188 C-1.4340332 16.65844727 -1.4340332 16.65844727 -1.48828125 14.95703125 C-1.51446533 13.93585205 -1.54064941 12.91467285 -1.56762695 11.86254883 C-2.06669774 8.55842402 -2.94645807 6.62837911 -5 4 C-9.57745285 3.34137951 -9.57745285 3.34137951 -13.68676758 5.14379883 C-15.58024557 7.82015376 -15.43529009 9.94335786 -15.51171875 13.19921875 C-15.54716797 14.40771484 -15.58261719 15.61621094 -15.61914062 16.86132812 C-15.65297852 18.7552832 -15.65297852 18.7552832 -15.6875 20.6875 C-15.72166016 21.96173828 -15.75582031 23.23597656 -15.79101562 24.54882812 C-15.87360784 27.69913103 -15.94272335 30.84915157 -16 34 C-18.64 34 -21.28 34 -24 34 C-24 22.78 -24 11.56 -24 0 C-21.69 0 -19.38 0 -17 0 C-16.67 0.99 -16.34 1.98 -16 3 C-15.401875 2.525625 -14.80375 2.05125 -14.1875 1.5625 C-9.63267763 -1.69094455 -5.22765746 -1.35735667 0 0 Z " fill="#F0F1F1" transform="translate(567,499)"/>
<path d="M0 0 C3.3125 -0.3125 3.3125 -0.3125 7 0 C9.68331351 3.66665027 11.43133684 7.89584707 13.3203125 12.015625 C13.62444061 12.67205994 13.92856873 13.32849487 14.24191284 14.00482178 C15.20560024 16.08533097 16.16565544 18.1674851 17.125 20.25 C18.09170638 22.34669154 19.05924171 24.44297936 20.0295105 26.5380249 C20.63152274 27.83802148 21.2314597 29.13898147 21.82913208 30.440979 C23.09083473 33.43056369 23.09083473 33.43056369 25 36 C25.43344727 34.94498291 25.86689453 33.88996582 26.31347656 32.80297852 C27.92334137 28.8959622 29.55306351 24.99749636 31.18896484 21.10131836 C31.89462348 19.41283604 32.59485247 17.72207397 33.28955078 16.02905273 C34.28825786 13.59782074 35.30611456 11.17541812 36.328125 8.75390625 C36.63558655 7.99348526 36.9430481 7.23306427 37.25982666 6.44960022 C38.16894531 4.32641602 38.16894531 4.32641602 40 1 C42.11444092 0.292099 42.11444092 0.292099 44 0 C43.34284349 4.19403169 41.94810489 7.71800024 40.234375 11.59375 C39.8214621 12.53571228 39.8214621 12.53571228 39.40020752 13.4967041 C38.52149061 15.49990338 37.63629926 17.50014525 36.75 19.5 C35.5952153 22.11295052 34.44387646 24.72737325 33.296875 27.34375 C32.87758728 28.30015381 32.87758728 28.30015381 32.4498291 29.27587891 C29.76824231 35.44309708 27.34787601 41.69794741 25 48 C22.75634766 48.01245117 22.75634766 48.01245117 20 47 C18.19648706 44.47085609 17.09004697 41.65813793 15.8984375 38.80078125 C15.53529449 37.97297653 15.17215149 37.14517181 14.79800415 36.2922821 C13.63894342 33.63978082 12.50658595 30.97682249 11.375 28.3125 C10.60594948 26.53633638 9.83513581 24.76093507 9.0625 22.98632812 C7.96970577 20.47616584 6.87952213 17.96525594 5.80355835 15.4478302 C4.37598836 12.11182664 2.92763733 8.8599763 1.26025391 5.63354492 C0 3 0 3 0 0 Z " fill="#F3F2F5" transform="translate(461,486)"/>
<path d="M0 0 C2.31 0 4.62 0 7 0 C8.60520934 3.04111749 10.20897836 6.08299233 11.8125 9.125 C12.26431641 9.9809375 12.71613281 10.836875 13.18164062 11.71875 C13.62314453 12.55664062 14.06464844 13.39453125 14.51953125 14.2578125 C14.95088379 15.07540039 15.38223633 15.89298828 15.82666016 16.73535156 C16.80038753 18.61473048 17.72509523 20.51941195 18.63671875 22.4296875 C19.82671787 24.98673518 19.82671787 24.98673518 21.58203125 26.55078125 C23.53810323 28.54996225 23.95743861 30.51060822 24.6875 33.1875 C24.93886719 34.08855469 25.19023438 34.98960937 25.44921875 35.91796875 C25.63097656 36.60503906 25.81273437 37.29210937 26 38 C27.98 37.505 27.98 37.505 30 37 C29.49516338 41.34159496 28.68099266 44.49408652 26 48 C25.01 48 24.02 48 23 48 C20.59186193 43.376314 18.18927036 38.74980499 15.79174805 34.12060547 C14.97555494 32.54657665 14.15785816 30.97332659 13.33862305 29.40087891 C12.16057426 27.13908239 10.98798138 24.8745301 9.81640625 22.609375 C9.44971329 21.90818542 9.08302032 21.20699585 8.70521545 20.48455811 C7.08730084 17.3446397 5.76426263 14.44521369 5 11 C4.34 11 3.68 11 3 11 C3 22.88 3 34.76 3 47 C2.01 47 1.02 47 0 47 C0 31.49 0 15.98 0 0 Z " fill="#F0F0F1" transform="translate(672,486)"/>
<path d="M0 0 C0.75925781 -0.02900391 1.51851563 -0.05800781 2.30078125 -0.08789062 C5.89370299 -0.12879078 8.04480864 -0.01538003 11 2.11328125 C13.19673006 5.33400787 13.04360953 7.50723329 12.5 11.3125 C10.16024431 14.58459489 8.813638 15.25090443 4.8203125 16.03515625 C3.42339657 16.16586956 2.02470869 16.27868977 0.625 16.375 C-6.07426543 16.87837709 -11.2582629 17.77579749 -15.875 23 C-16.41125 23.763125 -16.9475 24.52625 -17.5 25.3125 C-16.69988306 25.06989488 -16.69988306 25.06989488 -15.88360214 24.82238865 C-12.99471533 24.20441195 -10.31827351 24.17169858 -7.36236572 24.15428162 C-6.10315811 24.1444928 -4.8439505 24.13470398 -3.54658508 24.12461853 C-2.15377846 24.11871474 -0.76097143 24.11290427 0.63183594 24.10717773 C2.10039036 24.0975962 3.56894204 24.08758596 5.03749084 24.07717896 C9.02264652 24.05015362 13.00781401 24.02913122 16.99301052 24.00917697 C21.15838712 23.9873028 25.32372741 23.95992111 29.48907471 23.93312073 C37.37605754 23.88321321 45.26306055 23.83826717 53.15008283 23.79509836 C62.12947247 23.74570941 71.10882567 23.69079743 80.08818007 23.63541877 C98.55875287 23.52162851 117.02936007 23.41478303 135.5 23.3125 C135.5 24.3025 135.5 25.2925 135.5 26.3125 C83.20448277 28.32881609 30.80653169 27.48382282 -21.5 26.3125 C-19.96866325 23.04469547 -18.62090208 21.33006137 -15.6875 19.1875 C-14.68783203 18.44113281 -14.68783203 18.44113281 -13.66796875 17.6796875 C-7.81705955 13.98992494 -2.463853 13.97622034 4.3203125 13.75390625 C7.45488797 13.57216249 7.45488797 13.57216249 9.40625 11.93359375 C10.98548128 9.59294739 10.91393455 8.07206368 10.5 5.3125 C9.44525968 3.5418024 9.44525968 3.5418024 7.5 2.3125 C4.34198864 1.90930758 4.34198864 1.90930758 0.8125 2.0625 C-0.43144531 2.08828125 -1.67539062 2.1140625 -2.95703125 2.140625 C-6.86476831 2.33019549 -10.63886078 2.69471772 -14.5 3.3125 C-10.57600167 -0.61149833 -5.27879789 0.06721729 0 0 Z " fill="#2B2537" transform="translate(365.5,437.6875)"/>
<path d="M0 0 C3.23939656 1.73539102 5.42321134 3.42321134 8 6 C8 6.99 8 7.98 8 9 C6.35 9 4.7 9 3 9 C2.71125 8.360625 2.4225 7.72125 2.125 7.0625 C1.17176549 4.84793921 1.17176549 4.84793921 -1 4 C-5.65275976 3.6947378 -5.65275976 3.6947378 -10 5 C-10.33425735 7.37374861 -10.33425735 7.37374861 -10 10 C-7.65247997 12.55165221 -4.70226487 13.5615317 -1.5625 14.875 C2.61222917 16.65630948 5.04546981 18.58382447 8 22 C8.33 22.33 8.66 22.66 9 23 C9.42195626 26.71321511 9.28831289 28.53015677 7.3125 31.75 C3.51929871 35.44068234 -0.22836462 36.30111155 -5.4375 36.375 C-10.38901928 36.28824831 -13.22493491 35.38787893 -17 32 C-19 29 -19 29 -19 26 C-16.6875 25.6875 -16.6875 25.6875 -14 26 C-12.3125 28.4375 -12.3125 28.4375 -11 31 C-7.98131566 32.50934217 -5.32702771 32.17510672 -2 32 C-1.01 31.34 -0.02 30.68 1 30 C1.2502157 26.91634129 1.2502157 26.91634129 1 24 C0.175 23.7525 -0.65 23.505 -1.5 23.25 C-13.75 18.875 -13.75 18.875 -17 14 C-17.45468446 10.81720877 -17.71154438 9.01359974 -17 6 C-12.00676017 -0.17584927 -7.63332037 -0.87806599 0 0 Z " fill="#F4F5F6" transform="translate(616,498)"/>
<path d="M0 0 C0.87841049 -0.0033284 1.75682098 -0.0066568 2.66184998 -0.01008606 C4.4701181 -0.01504725 6.278395 -0.01749785 8.08666992 -0.01733398 C10.86586633 -0.01957748 13.64469852 -0.03799525 16.42382812 -0.05664062 C18.19921741 -0.05956568 19.97460855 -0.0615564 21.75 -0.0625 C22.57689835 -0.06968552 23.40379669 -0.07687103 24.25575256 -0.08427429 C30.01719339 -0.06093161 30.01719339 -0.06093161 32.24609375 2.16796875 C28.56052844 4.62501229 26.76318053 4.41931187 22.36468506 4.42193604 C21.66060619 4.42505602 20.95652731 4.428176 20.23111272 4.43139052 C17.86590468 4.4393837 15.50095226 4.43304172 13.13574219 4.42675781 C11.44224395 4.42946719 9.74874689 4.43302782 8.05525208 4.43737793 C3.44970543 4.44651333 -1.15575183 4.44295221 -5.76130009 4.43661976 C-10.58002529 4.43156241 -15.39874276 4.43625078 -20.21746826 4.43939209 C-28.31475195 4.44303391 -36.41199919 4.43822845 -44.50927734 4.42871094 C-53.8653717 4.41784066 -63.2213788 4.42134071 -72.57747102 4.43236375 C-80.60985378 4.44144803 -88.64221031 4.44271587 -96.67459655 4.43748641 C-101.47194456 4.4343711 -106.26925162 4.43394504 -111.06659698 4.44055939 C-115.580967 4.44634826 -120.09522496 4.44230771 -124.6095829 4.43077087 C-126.26435218 4.4281319 -127.91913093 4.42887633 -129.57389641 4.4332962 C-131.83757816 4.43878369 -134.10090375 4.43187886 -136.36456299 4.42193604 C-137.62997547 4.42118198 -138.89538795 4.42042793 -140.19914627 4.41965103 C-144.04098211 4.14764335 -147.10467908 3.35003158 -150.75390625 2.16796875 C-147.74832783 1.29668174 -145.08379528 1.04612751 -141.95896912 1.05444336 C-140.51522415 1.0545491 -140.51522415 1.0545491 -139.04231262 1.05465698 C-137.99250717 1.0598233 -136.94270172 1.06498962 -135.86108398 1.0703125 C-134.74985168 1.07177277 -133.63861938 1.07323303 -132.49371338 1.07473755 C-130.07707209 1.07854559 -127.6604336 1.08466431 -125.24380302 1.09280396 C-121.40309467 1.10558323 -117.56242097 1.11208882 -113.72169495 1.11694336 C-104.85562478 1.12934936 -95.98958511 1.15086294 -87.12353516 1.173172 C-78.38439586 1.19510135 -69.64527583 1.21294171 -60.90611458 1.22390747 C-57.15153306 1.23031677 -53.39700517 1.242832 -49.6424408 1.25561523 C-37.96338557 1.28032653 -26.35402486 1.11615688 -14.69621277 0.39950562 C-9.79405416 0.11159537 -4.90945967 0.00689395 0 0 Z " fill="#0E0818" transform="translate(443.75390625,581.83203125)"/>
<path d="M0 0 C2.64 0 5.28 0 8 0 C8 15.51 8 31.02 8 47 C5.36 47 2.72 47 0 47 C-0.495 29.675 -0.495 29.675 -1 12 C-1.99 12.99 -2.98 13.98 -4 15 C-4.92718689 11.91863039 -5.14268368 10.38328753 -4.00390625 7.32421875 C-3.52824219 6.45410156 -3.05257812 5.58398438 -2.5625 4.6875 C-2.08941406 3.80449219 -1.61632812 2.92148437 -1.12890625 2.01171875 C-0.75636719 1.34785156 -0.38382813 0.68398438 0 0 Z " fill="#F4F5F5" transform="translate(717,486)"/>
<path d="M0 0 C1.65 0 3.3 0 5 0 C5 3.63 5 7.26 5 11 C7.64 11 10.28 11 13 11 C13 11.99 13 12.98 13 14 C10.36 14 7.72 14 5 14 C5.33 22.91 5.66 31.82 6 41 C10.34944269 41.86988854 11.97128525 42.03595522 16 41 C16 42.65 16 44.3 16 46 C12.31289296 47.84355352 8.03324644 47.35512862 4 47 C0.9375 45.75 0.9375 45.75 -1 44 C-2.21775346 40.60247268 -2.1145402 37.28252325 -2.09765625 33.703125 C-2.09443359 32.49785156 -2.09121094 31.29257812 -2.08789062 30.05078125 C-2.07951172 28.79652344 -2.07113281 27.54226563 -2.0625 26.25 C-2.05798828 24.98027344 -2.05347656 23.71054687 -2.04882812 22.40234375 C-2.03704556 19.26818164 -2.02059416 16.13411459 -2 13 C-3.98 13 -5.96 13 -8 13 C-8 12.34 -8 11.68 -8 11 C-6.02 11 -4.04 11 -2 11 C-2.061875 9.1128125 -2.061875 9.1128125 -2.125 7.1875 C-2.2390374 3.70935927 -2.05925681 3.08888522 0 0 Z " fill="#E4E4E5" transform="translate(803,488)"/>
<path d="M0 0 C3.12051271 2.28330198 5.1665376 4.2765747 6.5625 7.875 C7.0514788 12.34406478 6.93894436 16.76122524 6.8125 21.25 C6.79445313 22.46300781 6.77640625 23.67601562 6.7578125 24.92578125 C6.71082216 27.9096679 6.64513372 30.89192279 6.5625 33.875 C4.5825 33.875 2.6025 33.875 0.5625 33.875 C0.2325 32.885 -0.0975 31.895 -0.4375 30.875 C-0.953125 31.37 -1.46875 31.865 -2 32.375 C-5.24430017 34.37149241 -7.69967334 34.09064385 -11.4375 33.875 C-11.4375 33.215 -11.4375 32.555 -11.4375 31.875 C-10.88320313 31.69324219 -10.32890625 31.51148438 -9.7578125 31.32421875 C-9.03335938 31.07285156 -8.30890625 30.82148437 -7.5625 30.5625 C-6.84320312 30.31886719 -6.12390625 30.07523438 -5.3828125 29.82421875 C-3.09755095 28.91164453 -3.09755095 28.91164453 -1.4375 25.875 C-0.98355448 23.59587062 -0.98355448 23.59587062 -0.8125 21.1875 C-0.73773437 20.37925781 -0.66296875 19.57101562 -0.5859375 18.73828125 C-0.53695312 18.12339844 -0.48796875 17.50851562 -0.4375 16.875 C-3.0775 16.545 -5.7175 16.215 -8.4375 15.875 C-8.1075 15.215 -7.7775 14.555 -7.4375 13.875 C-5.1275 13.875 -2.8175 13.875 -0.4375 13.875 C-0.72625 12.616875 -1.015 11.35875 -1.3125 10.0625 C-1.55613281 9.00095703 -1.55613281 9.00095703 -1.8046875 7.91796875 C-2.41757723 5.59757026 -2.41757723 5.59757026 -4.4375 2.875 C-8.50380753 2.34977449 -8.50380753 2.34977449 -12.4375 2.875 C-14.9779226 5.21330958 -14.9779226 5.21330958 -16.4375 7.875 C-19.4075 7.38 -19.4075 7.38 -22.4375 6.875 C-18.97922213 -2.80817804 -8.30779427 -2.71891449 0 0 Z " fill="#F7F7F9" transform="translate(527.4375,499.125)"/>
<path d="M0 0 C0.33 0 0.66 0 1 0 C1 2.31 1 4.62 1 7 C-0.65 7.33 -2.3 7.66 -4 8 C-2.35 8.66 -0.7 9.32 1 10 C1.02698189 11.62490954 1.04638757 13.24994633 1.0625 14.875 C1.07410156 15.77992188 1.08570313 16.68484375 1.09765625 17.6171875 C1 20 1 20 0 22 C-0.66 21.67 -1.32 21.34 -2 21 C-1.67 20.34 -1.34 19.68 -1 19 C-0.95977609 16.6670134 -0.95679753 14.33293334 -1 12 C-4.93774177 11.63369844 -6.56539771 11.69766797 -9.875 14 C-10.57625 14.66 -11.2775 15.32 -12 16 C-11.67 17.65 -11.34 19.3 -11 21 C-8.69 21.66 -6.38 22.32 -4 23 C-6 25 -6 25 -9 26 C-4.78121808 26.19622241 -1.82989106 25.80230168 2 24 C2.33 24.99 2.66 25.98 3 27 C2.38125 27.144375 1.7625 27.28875 1.125 27.4375 C-1.03258322 27.93152225 -1.03258322 27.93152225 -3 29 C-9.17877357 29.52499383 -14.79823328 29.77128087 -20 26 C-22.42937292 23.0847525 -22.96492911 21.28056714 -23.4375 17.5 C-22.91237412 13.29899297 -22.09646416 11.85827461 -19 9 C-12.98711374 5.49248302 -6.85685056 5.32651669 0 5 C0 3.35 0 1.7 0 0 Z " fill="#A0A0A2" transform="translate(754,506)"/>
<path d="M0 0 C1.32 0 2.64 0 4 0 C4.84454356 3.37817425 5.10844919 5.67465243 4 9 C4.5775 9.226875 5.155 9.45375 5.75 9.6875 C8.77090989 11.44969744 10.22116957 12.96940001 12 16 C12.08687813 18.87783814 11.61881794 21.14391721 11 24 C10 25 10 25 6.8125 25.1875 C3.13242468 25.00651269 0.41102853 24.33113308 -3 23 C-3 22.34 -3 21.68 -3 21 C-3.66 21 -4.32 21 -5 21 C-8.82367267 12.1290794 -8.82367267 12.1290794 -7 7 C-4.5625 4.25 -4.5625 4.25 -2 2 C-1.34 1.34 -0.68 0.68 0 0 Z " fill="#C7BED5" transform="translate(238,559)"/>
<path d="M0 0 C1.98 0 3.96 0 6 0 C6.66 0.99 7.32 1.98 8 3 C8.391875 2.505 8.78375 2.01 9.1875 1.5 C11.55091715 -0.45593143 13.01435003 -0.24207973 16 0 C14.74797133 3.75608601 13.36936427 4.14684965 10 6 C8.16780354 7.83219646 8.76098672 10.75713741 8.68359375 13.22265625 C8.64169922 14.48271484 8.59980469 15.74277344 8.55664062 17.04101562 C8.51682404 18.38150736 8.47711186 19.7220022 8.4375 21.0625 C8.39431958 22.40691523 8.35070544 23.7513166 8.30664062 25.09570312 C8.20014642 28.3970234 8.0981354 31.69842236 8 35 C5.36 35 2.72 35 0 35 C0 23.45 0 11.9 0 0 Z " fill="#E8E8EA" transform="translate(771,499)"/>
<path d="M0 0 C4.09015247 3.5447988 5.60348615 6.94766839 6.04907227 12.25561523 C6.10721141 15.4673627 6.07432808 18.66364564 6 21.875 C5.97969727 23.5446582 5.97969727 23.5446582 5.95898438 25.24804688 C5.92382997 27.97837212 5.87462106 30.70767744 5.8125 33.4375 C3.1725 33.4375 0.5325 33.4375 -2.1875 33.4375 C-2.21255615 32.67083008 -2.2376123 31.90416016 -2.26342773 31.11425781 C-2.37951423 27.63850717 -2.50218366 24.16301908 -2.625 20.6875 C-2.66431641 19.4809375 -2.70363281 18.274375 -2.74414062 17.03125 C-2.78603516 15.87109375 -2.82792969 14.7109375 -2.87109375 13.515625 C-2.90775146 12.44731445 -2.94440918 11.37900391 -2.98217773 10.27832031 C-3.15736909 7.85438848 -3.49948487 5.75863288 -4.1875 3.4375 C-5.46625 3.416875 -6.745 3.39625 -8.0625 3.375 C-8.78179688 3.36339844 -9.50109375 3.35179687 -10.2421875 3.33984375 C-12.26935404 3.31100758 -12.26935404 3.31100758 -14.1875 4.4375 C-13.8575 2.7875 -13.5275 1.1375 -13.1875 -0.5625 C-8.3373001 -2.0548692 -4.62369394 -2.26651664 0 0 Z " fill="#EFEFF0" transform="translate(656.1875,499.5625)"/>
<path d="M0 0 C0 3.87217618 -0.33524494 5.14634518 -3 8 C-6.67807432 8.77041857 -10.33651914 8.6297629 -14.08081055 8.56762695 C-15.22241638 8.56835709 -16.36402222 8.56908722 -17.54022217 8.56983948 C-21.32286693 8.56634924 -25.10428845 8.5274172 -28.88671875 8.48828125 C-31.50559313 8.47895832 -34.12447622 8.47183976 -36.74336243 8.46684265 C-42.93772687 8.45129714 -49.13165049 8.41025982 -55.32582074 8.3600952 C-62.37768896 8.30422316 -69.42957814 8.27672075 -76.48161256 8.25161803 C-90.98796919 8.1993441 -105.49397843 8.11138849 -120 8 C-118 6 -118 6 -116.0187254 5.7678709 C-115.20113656 5.77620858 -114.38354773 5.78454626 -113.54118347 5.7931366 C-112.1343203 5.7998513 -112.1343203 5.7998513 -110.69903564 5.80670166 C-109.15068024 5.82927032 -109.15068024 5.82927032 -107.57104492 5.85229492 C-106.48638443 5.86003433 -105.40172394 5.86777374 -104.28419495 5.87574768 C-101.92256921 5.89343878 -99.56097323 5.9155048 -97.19942284 5.9413662 C-93.46352897 5.98064686 -89.72782001 6.00511219 -85.99177551 6.02497864 C-75.36724895 6.0831501 -64.74303399 6.15996813 -54.11889648 6.26733398 C-47.62628542 6.33277192 -41.13378756 6.37181927 -34.64089394 6.39650917 C-32.1636784 6.41078827 -29.68649871 6.43442297 -27.20946312 6.46751976 C-23.74506674 6.51315758 -20.28179723 6.52799739 -16.81713867 6.53588867 C-15.2778923 6.56756638 -15.2778923 6.56756638 -13.70755005 6.59988403 C-7.8273218 6.59049234 -7.8273218 6.59049234 -2.88642883 3.52900696 C-2.26390732 2.69443466 -1.6413858 1.85986237 -1 1 C-0.67 0.67 -0.34 0.34 0 0 Z " fill="#1E1232" transform="translate(332,456)"/>
<path d="M0 0 C2.31 0 4.62 0 7 0 C7 11.22 7 22.44 7 34 C4.69 34 2.38 34 0 34 C0 22.78 0 11.56 0 0 Z " fill="#FBFDFD" transform="translate(583,499)"/>
<path d="M0 0 C2.97 0 5.94 0 9 0 C9 16.17 9 32.34 9 49 C3.555 49.495 3.555 49.495 -2 50 C-3.71443219 48.28556781 -3.23052967 45.99554759 -3.31640625 43.65234375 C-3.35830078 42.57275391 -3.40019531 41.49316406 -3.44335938 40.38085938 C-3.48267578 39.24455078 -3.52199219 38.10824219 -3.5625 36.9375 C-3.60568359 35.79732422 -3.64886719 34.65714844 -3.69335938 33.48242188 C-3.79982839 30.65507805 -3.90184207 27.82764262 -4 25 C-7.4425276 28.21109717 -9.821687 31.04647213 -11.8125 35.3125 C-12.23144531 36.19550781 -12.65039062 37.07851563 -13.08203125 37.98828125 C-13.38496094 38.65214844 -13.68789063 39.31601562 -14 40 C-14.33 39.34 -14.66 38.68 -15 38 C-14.04370117 35.49389648 -14.04370117 35.49389648 -12.54296875 32.37109375 C-12.00736328 31.25412109 -11.47175781 30.13714844 -10.91992188 28.98632812 C-10.34822266 27.81521484 -9.77652344 26.64410156 -9.1875 25.4375 C-8.62740234 24.26251953 -8.06730469 23.08753906 -7.49023438 21.87695312 C-3.26101786 13.13050893 -3.26101786 13.13050893 -1 12 C-1 23.88 -1 35.76 -1 48 C1.64 48 4.28 48 7 48 C7 32.49 7 16.98 7 1 C4.69 1 2.38 1 0 1 C0 0.67 0 0.34 0 0 Z " fill="#0A0A0C" transform="translate(718,485)"/>
<path d="M0 0 C0.66 0 1.32 0 2 0 C3.81359313 3.88134031 4.2373701 6.90693517 4.1953125 11.17578125 C4.18886719 12.33271484 4.18242188 13.48964844 4.17578125 14.68164062 C4.15902344 15.87982422 4.14226563 17.07800781 4.125 18.3125 C4.11597656 19.53001953 4.10695313 20.74753906 4.09765625 22.00195312 C4.07413037 25.00150274 4.04125653 28.00065044 4 31 C1.69 31 -0.62 31 -3 31 C-3.08746928 26.95847085 -3.14054982 22.91718695 -3.1875 18.875 C-3.21263672 17.73289062 -3.23777344 16.59078125 -3.26367188 15.4140625 C-3.35493909 4.9487553 -3.35493909 4.9487553 0 0 Z " fill="#FBFAFD" transform="translate(569,502)"/>
<path d="M0 0 C0 0.66 0 1.32 0 2 C0.53367187 1.835 1.06734375 1.67 1.6171875 1.5 C4.51138817 0.89269232 7.17013455 0.94191911 10.125 1 C14.21839428 1.20817858 14.21839428 1.20817858 18 0 C17.67 0.99 17.34 1.98 17 3 C12.9971709 3.74754352 9.2142287 4.12612126 5.14428711 4.12939453 C3.4447715 4.13412277 3.4447715 4.13412277 1.71092224 4.13894653 C0.49534134 4.1369223 -0.72023956 4.13489807 -1.97265625 4.1328125 C-3.88285805 4.13424759 -3.88285805 4.13424759 -5.83164978 4.13571167 C-8.53241364 4.13639191 -11.23308699 4.13505471 -13.93383789 4.13037109 C-17.32896953 4.12475914 -20.72402145 4.12800892 -24.11915016 4.13379288 C-36.51955922 4.15193397 -48.91690029 4.12347547 -61.30859375 3.6171875 C-62.17444595 3.58682404 -63.04029816 3.55646057 -63.93238831 3.525177 C-69.75927009 3.24072991 -69.75927009 3.24072991 -72 1 C-63.05533304 0.86936036 -54.11066271 0.7389546 -45.16598797 0.60884857 C-41.01275656 0.54842978 -36.85952637 0.48793001 -32.70629883 0.42724609 C-28.69926537 0.36870122 -24.69222889 0.31036786 -20.6851902 0.25218201 C-19.15536196 0.22993016 -17.62553484 0.20760172 -16.09570885 0.18519592 C-13.95532896 0.15386097 -11.81494531 0.12279676 -9.67456055 0.09179688 C-8.45544479 0.07403198 -7.23632904 0.05626709 -5.98027039 0.03796387 C-3.98696847 0.0125724 -1.99346363 0 0 0 Z " fill="#D1BAE9" transform="translate(304,542)"/>
<path d="M0 0 C0.886875 -0.00257813 1.77375 -0.00515625 2.6875 -0.0078125 C5 0.125 5 0.125 7 1.125 C7 2.775 7 4.425 7 6.125 C5.35 6.125 3.7 6.125 2 6.125 C2.33 6.785 2.66 7.445 3 8.125 C3.99 8.125 4.98 8.125 6 8.125 C6.33 10.435 6.66 12.745 7 15.125 C5.60669619 15.3496285 4.21010791 15.5539245 2.8125 15.75 C2.03519531 15.86601563 1.25789062 15.98203125 0.45703125 16.1015625 C-2 16.125 -2 16.125 -7 14.125 C-7 9.835 -7 5.545 -7 1.125 C-4.51245214 -0.11877393 -2.77344699 -0.00806235 0 0 Z " fill="#07080C" transform="translate(812,551.875)"/>
<path d="M0 0 C0.47138774 4.80815498 0.70477383 7.95351764 -2.0625 12.0625 C-5.7146926 14.47139299 -7.70297741 14.63659594 -12 14 C-13.9375 12.9375 -13.9375 12.9375 -15 11 C-15.5 7.5625 -15.5 7.5625 -15 4 C-11.03356511 -1.15636536 -5.94209192 -0.41536953 0 0 Z " fill="#1B1B1D" transform="translate(527,516)"/>
<path d="M0 0 C-0.33 1.32 -0.66 2.64 -1 4 C-3.31 4 -5.62 4 -8 4 C-7.67 4.99 -7.34 5.98 -7 7 C-5.02 6.67 -3.04 6.34 -1 6 C-0.61936779 8.3260857 -0.28730055 10.66055264 0 13 C-1.72334021 14.72334021 -3.9668621 14.21271834 -6.3125 14.25 C-7.27800781 14.27578125 -8.24351562 14.3015625 -9.23828125 14.328125 C-12.36753676 13.95633227 -13.69109423 13.08404796 -16 11 C-14.84978541 1.69527897 -14.84978541 1.69527897 -11.9375 -0.6875 C-7.85470871 -1.1218395 -4.03972935 -0.65128534 0 0 Z " fill="#1F1F23" transform="translate(801,553)"/>
<path d="M0 0 C0 0.99 0 1.98 0 3 C-73.755 2.505 -73.755 2.505 -149 2 C-149 1.67 -149 1.34 -149 1 C-130.31108654 0.86940483 -111.6221717 0.73900836 -92.9332552 0.60884857 C-84.25571439 0.54840882 -75.57817405 0.48790399 -66.90063477 0.42724609 C-59.33748675 0.3743782 -51.7743379 0.32163228 -44.21118802 0.26903296 C-40.20641244 0.24117674 -36.20163731 0.21325936 -32.19686317 0.18519592 C-28.42702524 0.15878073 -24.65718621 0.13252869 -20.88734627 0.10640144 C-19.50425932 0.09678713 -18.12117278 0.08711335 -16.7380867 0.07737541 C-14.84808208 0.06407733 -12.9580758 0.05101488 -11.06806946 0.03796387 C-10.01077291 0.03058952 -8.95347635 0.02321518 -7.86414051 0.01561737 C-5.24268399 0.00132329 -2.62148785 -0.00293298 0 0 Z " fill="#070212" transform="translate(501,461)"/>
<path d="M0 0 C0.33 0.66 0.66 1.32 1 2 C4.465 1.505 4.465 1.505 8 1 C10.49336211 4.74004317 10.25481228 7.62561609 10.1953125 11.94921875 C10.1924826 12.72183548 10.18965271 13.49445221 10.18673706 14.29048157 C10.17554878 16.75631243 10.15044703 19.22177906 10.125 21.6875 C10.11496843 23.36002079 10.10584289 25.03254728 10.09765625 26.70507812 C10.07561392 30.80352559 10.04109363 34.90170106 10 39 C8.56344146 39.08131463 7.1255517 39.13933559 5.6875 39.1875 C4.48673828 39.23970703 4.48673828 39.23970703 3.26171875 39.29296875 C1 39 1 39 -0.78613281 37.96704102 C-2.67647289 34.90379283 -2.2740336 31.813641 -2.109375 28.33984375 C-2.07327118 27.22132774 -2.07327118 27.22132774 -2.03643799 26.08021545 C-1.98282504 24.50560798 -1.92183327 22.93123689 -1.85400391 21.35717773 C-1.75025814 18.94350558 -1.66804416 16.52985634 -1.58984375 14.11523438 C-1.53510676 12.58589215 -1.47915837 11.05659271 -1.421875 9.52734375 C-1.39575134 8.80336899 -1.36962769 8.07939423 -1.3427124 7.33348083 C-1.11754785 2.23509571 -1.11754785 2.23509571 0 0 Z M1 3 C1 14.22 1 25.44 1 37 C3.31 37 5.62 37 8 37 C8 25.78 8 14.56 8 3 C5.69 3 3.38 3 1 3 Z " fill="#272829" transform="translate(582,496)"/>
<path d="M0 0 C1.00508801 1.78881736 2.00392736 3.58114696 3 5.375 C3.556875 6.37273438 4.11375 7.37046875 4.6875 8.3984375 C6 11 6 11 6 13 C6.99 13.33 7.98 13.66 9 14 C8 15 8 15 4.9375 15.0625 C3.968125 15.041875 2.99875 15.02125 2 15 C1.67 14.01 1.34 13.02 1 12 C0.01 11.67 -0.98 11.34 -2 11 C-2.53625 11.66 -3.0725 12.32 -3.625 13 C-6 15 -6 15 -9.25 15.25 C-10.1575 15.1675 -11.065 15.085 -12 15 C-12.33 14.01 -12.66 13.02 -13 12 C-12 10 -12 10 -10.125 9.3125 C-6.91916489 7.33242538 -6.36513072 4.41282679 -5 1 C-3 0 -3 0 0 0 Z " fill="#96959A" transform="translate(776,552)"/>
<path d="M0 0 C2.31 0.66 4.62 1.32 7 2 C7 1.34 7 0.68 7 0 C9.31 0.66 11.62 1.32 14 2 C14 2.66 14 3.32 14 4 C11.5 5.625 11.5 5.625 9 7 C9 5.68 9 4.36 9 3 C6.69 3 4.38 3 2 3 C2 14.22 2 25.44 2 37 C4.64 37 7.28 37 10 37 C9.97905273 36.20303711 9.95810547 35.40607422 9.93652344 34.58496094 C9.85336678 30.97343566 9.80133966 27.36211176 9.75 23.75 C9.71648438 22.49574219 9.68296875 21.24148438 9.6484375 19.94921875 C9.63554688 18.74394531 9.62265625 17.53867187 9.609375 16.296875 C9.58842773 15.18666992 9.56748047 14.07646484 9.54589844 12.93261719 C10.09680816 9.37480666 11.2539063 8.23298277 14 6 C14.99 6.33 15.98 6.66 17 7 C14.25 11.875 14.25 11.875 12 13 C11.98018066 13.74685059 11.96036133 14.49370117 11.93994141 15.26318359 C11.84491789 18.63415605 11.73514741 22.00448929 11.625 25.375 C11.57859375 27.1384375 11.57859375 27.1384375 11.53125 28.9375 C11.47324219 30.61972656 11.47324219 30.61972656 11.4140625 32.3359375 C11.3826416 33.37282715 11.3512207 34.4097168 11.31884766 35.47802734 C11 38 11 38 9 40 C6 40.25 6 40.25 3 40 C0.4956632 37.4956632 0.71873221 36.59100821 0.62109375 33.125 C0.58693359 32.13886719 0.55277344 31.15273438 0.51757812 30.13671875 C0.49115234 29.10160156 0.46472656 28.06648437 0.4375 27 C0.23588925 20.31681799 -0.04304695 13.71307921 -0.83935547 7.07080078 C-1.03355884 4.56740721 -0.72061419 2.40204729 0 0 Z " fill="#1A1A1C" transform="translate(541,496)"/>
<path d="M0 0 C1.175625 0.0825 2.35125 0.165 3.5625 0.25 C6.12937367 4.1003105 5.39538724 5.83569763 4.5625 10.25 C7.2025 10.25 9.8425 10.25 12.5625 10.25 C12.8925 11.9 13.2225 13.55 13.5625 15.25 C10.9225 16.24 8.2825 17.23 5.5625 18.25 C5.5625 25.84 5.5625 33.43 5.5625 41.25 C7.2125 41.25 8.8625 41.25 10.5625 41.25 C10.5625 41.91 10.5625 42.57 10.5625 43.25 C7.6875 43.875 7.6875 43.875 4.5625 44.25 C2.5625 42.25 2.5625 42.25 2.33544922 39.54443359 C2.34592285 38.42375488 2.35639648 37.30307617 2.3671875 36.1484375 C2.37363281 34.93671875 2.38007812 33.725 2.38671875 32.4765625 C2.40347656 31.20554687 2.42023437 29.93453125 2.4375 28.625 C2.44652344 27.34625 2.45554687 26.0675 2.46484375 24.75 C2.48847697 21.58314833 2.52142371 18.41666576 2.5625 15.25 C5.2025 15.25 7.8425 15.25 10.5625 15.25 C10.5625 14.26 10.5625 13.27 10.5625 12.25 C7.9225 12.25 5.2825 12.25 2.5625 12.25 C2.5625 8.62 2.5625 4.99 2.5625 1.25 C-2.40272261 2.10010335 -2.40272261 2.10010335 -5.4375 5.25 C-4.32300984 0.31440072 -4.32300984 0.31440072 0 0 Z " fill="#202122" transform="translate(805.4375,486.75)"/>
<path d="M0 0 C0.99 0 1.98 0 3 0 C2.33821418 4.28993521 0.8375981 8.03788471 -0.90625 11.98046875 C-1.19101196 12.63453201 -1.47577393 13.28859528 -1.76916504 13.96247864 C-2.67483922 16.03953299 -3.58736994 18.11349402 -4.5 20.1875 C-5.11372177 21.59290667 -5.72700762 22.99850379 -6.33984375 24.40429688 C-10.73791907 34.47583814 -10.73791907 34.47583814 -12 37 C-12.99 37 -13.98 37 -15 37 C-14.41001977 32.26432276 -13.01584212 28.21819246 -11.09375 23.88671875 C-10.80898804 23.23169876 -10.52422607 22.57667877 -10.23083496 21.90180969 C-9.63215241 20.52812687 -9.03025275 19.15584207 -8.42529297 17.78491211 C-7.49639857 15.67933644 -6.57748386 13.56962151 -5.66015625 11.45898438 C-5.07609271 10.12214583 -4.49147696 8.78554839 -3.90625 7.44921875 C-3.49215881 6.5008741 -3.49215881 6.5008741 -3.06970215 5.53337097 C-1.11704171 1.11704171 -1.11704171 1.11704171 0 0 Z " fill="#E6E5E8" transform="translate(502,486)"/>
<path d="M0 0 C2.77919641 -0.0022435 5.5580286 -0.02066126 8.3371582 -0.03930664 C10.11254749 -0.0422317 11.88793863 -0.04422241 13.66333008 -0.04516602 C14.49022842 -0.05235153 15.31712677 -0.05953705 16.16908264 -0.06694031 C21.93052347 -0.04359762 21.93052347 -0.04359762 24.15942383 2.18530273 C11.42424386 3.59678651 -1.36062477 3.29653413 -14.15307617 3.24780273 C-16.45450749 3.24277813 -18.75593987 3.23821692 -21.05737305 3.23413086 C-26.65179753 3.22320038 -32.2461818 3.20653831 -37.84057617 3.18530273 C-37.84057617 2.52530273 -37.84057617 1.86530273 -37.84057617 1.18530273 C-25.22124763 0.39744466 -12.64409625 -0.00114582 0 0 Z " fill="#23202A" transform="translate(451.840576171875,581.814697265625)"/>
<path d="M0 0 C1.78562352 1.78562352 1.37956399 4.45327564 1.5625 6.875 C1.64628906 7.94492187 1.73007812 9.01484375 1.81640625 10.1171875 C1.94109799 12.0751132 2 14.03810778 2 16 C1.01 16.66 0.02 17.32 -1 18 C-1 12.39 -1 6.78 -1 1 C-3.31 1 -5.62 1 -8 1 C-8 16.84 -8 32.68 -8 49 C-8.66 48.67 -9.32 48.34 -10 48 C-9.67 37.44 -9.34 26.88 -9 16 C-9.66 16 -10.32 16 -11 16 C-10.88660796 13.35319096 -10.75987127 10.70822482 -10.625 8.0625 C-10.5940625 7.30775391 -10.563125 6.55300781 -10.53125 5.77539062 C-10.4273685 3.84492605 -10.22104386 1.92057919 -10 0 C-6.681572 -1.659214 -3.60735024 -0.57259528 0 0 Z " fill="#292A2C" transform="translate(640,485)"/>
<path d="M0 0 C2.40368008 1.49862695 3.6950334 2.853635 4.72265625 5.49609375 C4.76390625 6.07359375 4.80515625 6.65109375 4.84765625 7.24609375 C4.03039062 6.42753906 3.213125 5.60898437 2.37109375 4.765625 C-1.46625423 1.56783502 -4.70444806 1.65015051 -9.52734375 1.93359375 C-10.26339844 1.95615234 -10.99945312 1.97871094 -11.7578125 2.00195312 C-13.55688217 2.06036448 -15.35489128 2.15003038 -17.15234375 2.24609375 C-16.79398438 2.849375 -16.435625 3.45265625 -16.06640625 4.07421875 C-15.76476562 4.7909375 -15.463125 5.50765625 -15.15234375 6.24609375 C-16.52734375 8.99609375 -16.52734375 8.99609375 -18.15234375 11.24609375 C-20.46234375 10.58609375 -22.77234375 9.92609375 -25.15234375 9.24609375 C-25.02734375 6.99609375 -25.02734375 6.99609375 -24.15234375 4.24609375 C-17.3366464 -1.08793026 -8.38872897 -2.93833882 0 0 Z " fill="#888A8B" transform="translate(757.15234375,497.75390625)"/>
<path d="M0 0 C2.475 0.99 2.475 0.99 5 2 C4.625 3.9375 4.625 3.9375 4 6 C3.01 6.495 3.01 6.495 2 7 C1.938125 7.763125 1.87625 8.52625 1.8125 9.3125 C0.86130505 12.45876023 0.31658789 12.69655786 -2.4375 14.25 C-3.613125 14.8275 -4.78875 15.405 -6 16 C-6.66 16.33 -7.32 16.66 -8 17 C-8 12.71 -8 8.42 -8 4 C-5.525 4.99 -5.525 4.99 -3 6 C-2.01 4.02 -1.02 2.04 0 0 Z " fill="#797A7E" transform="translate(686,549)"/>
<path d="M0 0 C0.99 0.66 1.98 1.32 3 2 C2.67 4.31 2.34 6.62 2 9 C0.35 7.68 -1.3 6.36 -3 5 C-3.12375 5.721875 -3.2475 6.44375 -3.375 7.1875 C-3.9904931 9.95721894 -4.88444374 12.3970354 -6 15 C-6.33 13.68 -6.66 12.36 -7 11 C-7.66 11 -8.32 11 -9 11 C-9.99 7.7 -10.98 4.4 -12 1 C-7.6242643 -0.09393392 -4.488342 -0.21373057 0 0 Z " fill="#57565B" transform="translate(741,552)"/>
<path d="M0 0 C0.33 0.66 0.66 1.32 1 2 C1.66 2.33 2.32 2.66 3 3 C3.05783842 7.29161047 3.0935412 11.58312145 3.125 15.875 C3.14175781 17.09832031 3.15851562 18.32164062 3.17578125 19.58203125 C3.18222656 20.74863281 3.18867187 21.91523437 3.1953125 23.1171875 C3.20578613 24.19597168 3.21625977 25.27475586 3.22705078 26.38623047 C3 29 3 29 1 31 C-1.05859375 31.44921875 -1.05859375 31.44921875 -3.4375 31.6875 C-4.21996094 31.77386719 -5.00242187 31.86023438 -5.80859375 31.94921875 C-8 32 -8 32 -11 31 C-11.99 31.33 -12.98 31.66 -14 32 C-16.1875 31.0625 -16.1875 31.0625 -18 30 C-17.39671875 29.80664062 -16.7934375 29.61328125 -16.171875 29.4140625 C-14.97304688 29.02347656 -14.97304688 29.02347656 -13.75 28.625 C-12.96109375 28.36976563 -12.1721875 28.11453125 -11.359375 27.8515625 C-9.13372042 27.04826333 -7.09068328 26.10288338 -5 25 C-5 26.32 -5 27.64 -5 29 C-3.02 29 -1.04 29 1 29 C0.67 19.43 0.34 9.86 0 0 Z " fill="#1A1A1C" transform="translate(533,504)"/>
<path d="M0 0 C0.75925781 -0.02900391 1.51851563 -0.05800781 2.30078125 -0.08789062 C5.89370299 -0.12879078 8.04480864 -0.01538003 11 2.11328125 C13.19673006 5.33400787 13.04360953 7.50723329 12.5 11.3125 C10.16024431 14.58459489 8.813638 15.25090443 4.8203125 16.03515625 C3.42339657 16.16586956 2.02470869 16.27868977 0.625 16.375 C-4.65978476 16.77209422 -8.89878933 17.4957113 -13.5 20.3125 C-14.84736973 21.96783995 -16.18334336 23.63262773 -17.5 25.3125 C-18.49 25.3125 -19.48 25.3125 -20.5 25.3125 C-19.05366256 21.70838346 -17.30863332 20.19847432 -14.0625 18.125 C-13.28003906 17.61582031 -12.49757813 17.10664063 -11.69140625 16.58203125 C-6.64461476 13.65831069 -1.44087908 14.01432646 4.25 13.7890625 C7.44562247 13.57600043 7.44562247 13.57600043 9.4140625 11.9296875 C10.9848006 9.59053076 10.91306142 8.06624278 10.5 5.3125 C9.44525968 3.5418024 9.44525968 3.5418024 7.5 2.3125 C4.34198864 1.90930758 4.34198864 1.90930758 0.8125 2.0625 C-0.43144531 2.08828125 -1.67539062 2.1140625 -2.95703125 2.140625 C-6.86476831 2.33019549 -10.63886078 2.69471772 -14.5 3.3125 C-10.57600167 -0.61149833 -5.27879789 0.06721729 0 0 Z " fill="#120C1E" transform="translate(365.5,437.6875)"/>
<path d="M0 0 C3.63 0 7.26 0 11 0 C11 1.65 11 3.3 11 5 C9.35 5 7.7 5 6 5 C6 5.66 6 6.32 6 7 C4.68 7 3.36 7 2 7 C2 8.32 2 9.64 2 11 C4.31 11 6.62 11 9 11 C9 11.66 9 12.32 9 13 C6.03 13 3.06 13 0 13 C0 8.71 0 4.42 0 0 Z " fill="#909397" transform="translate(808,553)"/>
<path d="M0 0 C0.33 0 0.66 0 1 0 C1 11.88 1 23.76 1 36 C0.67 36 0.34 36 0 36 C-0.33 26.76 -0.66 17.52 -1 8 C-1.66 9.98 -2.32 11.96 -3 14 C-3.598125 14.5775 -4.19625 15.155 -4.8125 15.75 C-8.21524551 19.24996681 -9.95457067 23.60735669 -12 28 C-12.33 27.34 -12.66 26.68 -13 26 C-12.02783203 23.49389648 -12.02783203 23.49389648 -10.5078125 20.37109375 C-9.96769531 19.25412109 -9.42757812 18.13714844 -8.87109375 16.98632812 C-8.29488281 15.81521484 -7.71867188 14.64410156 -7.125 13.4375 C-6.55652344 12.26251953 -5.98804688 11.08753906 -5.40234375 9.87695312 C-1.16429978 1.16429978 -1.16429978 1.16429978 0 0 Z " fill="#313232" transform="translate(716,497)"/>
<path d="M0 0 C0.66 0 1.32 0 2 0 C2.33 0.66 2.66 1.32 3 2 C4.3921875 1.9690625 4.3921875 1.9690625 5.8125 1.9375 C9 2 9 2 12 3 C11.67 4.65 11.34 6.3 11 8 C8.69 8.33 6.38 8.66 4 9 C4 11.31 4 13.62 4 16 C2.35 15.01 0.7 14.02 -1 13 C-0.67 8.71 -0.34 4.42 0 0 Z " fill="#8D8B93" transform="translate(465,553)"/>
<path d="M0 0 C14.19 0 28.38 0 43 0 C41.02 2.64 39.04 5.28 37 8 C36.55609008 12.81959343 36.74143398 16.38179081 38 21 C35.74317974 19.22550808 35.0529961 18.36812347 34.63671875 15.4765625 C34.65347656 14.53554688 34.67023438 13.59453125 34.6875 12.625 C34.69136719 11.68914063 34.69523437 10.75328125 34.69921875 9.7890625 C35.01441201 6.86636136 35.86368909 4.69333111 37 2 C32.92497206 1.92579789 28.85020608 1.8713743 24.7746582 1.83520508 C23.38852081 1.82012603 22.00243106 1.7996595 20.61645508 1.77368164 C18.62341854 1.73726284 16.63003277 1.72186982 14.63671875 1.70703125 C12.83787231 1.68346558 12.83787231 1.68346558 11.00268555 1.65942383 C7.98995599 1.73297251 7.98995599 1.73297251 6.08520508 3.51831055 C5.7270874 4.00726807 5.36896973 4.49622559 5 5 C3.35 3.35 1.7 1.7 0 0 Z " fill="#07040E" transform="translate(250,558)"/>
<path d="M0 0 C6.4738255 -0.36644295 6.4738255 -0.36644295 8.75 1.21875 C10.42557409 3.60644307 10.1402636 4.84743741 9.6875 7.6875 C9.50767578 8.89986328 9.50767578 8.89986328 9.32421875 10.13671875 C9.21722656 10.75160156 9.11023438 11.36648438 9 12 C6.69 11.01 4.38 10.02 2 9 C2 9.99 2 10.98 2 12 C1.34 12 0.68 12 0 12 C0 8.04 0 4.08 0 0 Z " fill="#A5A4AB" transform="translate(486,553)"/>
<path d="M0 0 C5.41538462 -0.36923077 5.41538462 -0.36923077 8.375 1.5 C8.91125 1.995 9.4475 2.49 10 3 C9.31640625 4.9609375 9.31640625 4.9609375 8 7 C5.65234375 7.5390625 5.65234375 7.5390625 2.9375 7.625 C0.2938293 7.68478906 0.2938293 7.68478906 -2 8 C-3.34106405 10.6821281 -3.21450419 12.88398032 -3.31640625 15.8828125 C-3.35830078 17.04941406 -3.40019531 18.21601562 -3.44335938 19.41796875 C-3.48267578 20.64128906 -3.52199219 21.86460937 -3.5625 23.125 C-3.60568359 24.35605469 -3.64886719 25.58710937 -3.69335938 26.85546875 C-3.79968704 29.90352853 -3.90171781 32.9516719 -4 36 C-4.33 36 -4.66 36 -5 36 C-5.11605098 31.41687916 -5.18720362 26.83413551 -5.25 22.25 C-5.28351562 20.94804688 -5.31703125 19.64609375 -5.3515625 18.3046875 C-5.36445312 17.05429687 -5.37734375 15.80390625 -5.390625 14.515625 C-5.41157227 13.36352539 -5.43251953 12.21142578 -5.45410156 11.02441406 C-4.9018883 7.34655501 -3.91659999 6.23189028 -1 4 C-0.01 3.67 0.98 3.34 2 3 C2.33 2.34 2.66 1.68 3 1 C2.01 0.67 1.02 0.34 0 0 Z " fill="#7D7C7E" transform="translate(784,498)"/>
<path d="M0 0 C0.309375 0.639375 0.61875 1.27875 0.9375 1.9375 C1.8345163 3.93610821 1.8345163 3.93610821 3 5 C3.4267611 6.90580982 3.79175613 8.82563397 4.125 10.75 C4.31320313 11.79671875 4.50140625 12.8434375 4.6953125 13.921875 C4.9942726 16.94213861 4.67277797 19.07143709 4 22 C4.27017161 24.34148732 4.61250787 26.67504723 5 29 C5.22108385 31.32719845 5.42965706 33.65454977 5.62109375 35.984375 C5.92141148 38.30616796 5.92141148 38.30616796 8 41 C8.125 44.1875 8.125 44.1875 8 47 C5.39532224 44.75880658 4.57896511 43.28626927 4.12109375 39.89453125 C3.94767456 38.67781738 3.94767456 38.67781738 3.77075195 37.43652344 C3.66077881 36.5705957 3.55080566 35.70466797 3.4375 34.8125 C3.31528076 33.92208008 3.19306152 33.03166016 3.06713867 32.11425781 C2.6996652 29.41092704 2.34966971 26.70568213 2 24 C1.79017848 22.46729473 1.5793176 20.93473121 1.3671875 19.40234375 C0.49084486 12.88310034 -0.09418784 6.57865839 0 0 Z " fill="#D8C9E5" transform="translate(211,506)"/>
<path d="M0 0 C0.66 0.99 1.32 1.98 2 3 C1.13117188 2.89300781 0.26234375 2.78601563 -0.6328125 2.67578125 C-9.20313487 1.74209088 -9.20313487 1.74209088 -17 5 C-18.7634375 5.2165625 -18.7634375 5.2165625 -20.5625 5.4375 C-24.49743138 6.08139786 -26.06533071 7.40072149 -29 10 C-29.66 10 -30.32 10 -31 10 C-31.33 10.66 -31.66 11.32 -32 12 C-32 8.56917522 -31.18300451 6.98298543 -28.921875 4.4296875 C-21.59824916 -1.01837562 -8.69126623 -1.23641444 0 0 Z " fill="#685D83" transform="translate(373,439)"/>
<path d="M0 0 C0.99 0.33 1.98 0.66 3 1 C2.01 1.66 1.02 2.32 0 3 C-0.43132515 7.05445642 -0.30019361 8.54970958 2 12 C3.97747122 12.36297936 3.97747122 12.36297936 6.125 12.1875 C7.40375 12.125625 8.6825 12.06375 10 12 C10 11.34 10 10.68 10 10 C7.69 10.33 5.38 10.66 3 11 C3 9.68 3 8.36 3 7 C4.1446875 7.0309375 4.1446875 7.0309375 5.3125 7.0625 C8.10185786 7.12942841 8.10185786 7.12942841 11 6 C11.38063221 8.3260857 11.71269945 10.66055264 12 13 C10.27665979 14.72334021 8.0331379 14.21271834 5.6875 14.25 C4.72199219 14.27578125 3.75648438 14.3015625 2.76171875 14.328125 C-0.36753676 13.95633227 -1.69109423 13.08404796 -4 11 C-3.71890887 9.35232753 -3.42481474 7.70686855 -3.125 6.0625 C-2.96257813 5.14597656 -2.80015625 4.22945312 -2.6328125 3.28515625 C-2.42398438 2.53105469 -2.21515625 1.77695312 -2 1 C-1.34 0.67 -0.68 0.34 0 0 Z " fill="#07070B" transform="translate(789,553)"/>
<path d="M0 0 C2.58926331 2.58926331 2.37398043 4.02705279 2.625 7.625 C2.69976563 8.62789062 2.77453125 9.63078125 2.8515625 10.6640625 C2.92503906 11.82035156 2.92503906 11.82035156 3 13 C1.1875 13.625 1.1875 13.625 -1 14 C-1.99 13.34 -2.98 12.68 -4 12 C-6.08417527 12.18901701 -6.08417527 12.18901701 -8.1875 12.875 C-9.445625 13.24625 -10.70375 13.6175 -12 14 C-11.67 11.03 -11.34 8.06 -11 5 C-10.071875 6.2065625 -10.071875 6.2065625 -9.125 7.4375 C-7.25835959 10.03874519 -7.25835959 10.03874519 -5 11 C-4.566875 9.5459375 -4.566875 9.5459375 -4.125 8.0625 C-3 5 -3 5 -1 4 C-0.34786708 1.97536745 -0.34786708 1.97536745 0 0 Z " fill="#1E1D22" transform="translate(537,553)"/>
<path d="M0 0 C0.70713135 0.00354492 1.4142627 0.00708984 2.14282227 0.01074219 C6.12229326 0.13799673 9.17458377 0.50534404 12.5 2.75 C14.9585161 5.38840752 15.4443647 6.17485839 16.0625 9.5 C15.4025 9.5 14.7425 9.5 14.0625 9.5 C13.7325 10.16 13.4025 10.82 13.0625 11.5 C12.85625 10.7575 12.65 10.015 12.4375 9.25 C10.5493474 5.47369479 8.86884156 4.33520039 5.0625 2.5 C0.39293225 1.82758224 -3.5647841 1.92803504 -7.9375 3.75 C-9.99881195 5.55364796 -10.97191599 6.95436943 -11.9375 9.5 C-12.5975 9.5 -13.2575 9.5 -13.9375 9.5 C-13.9375 7.52 -13.9375 5.54 -13.9375 3.5 C-9.27505027 0.76508409 -5.3302831 -0.04767583 0 0 Z " fill="#0A0C0D" transform="translate(610.9375,496.5)"/>
<path d="M0 0 C3 3 3 3 3.07641602 5.07177734 C2.94936279 5.8602002 2.82230957 6.64862305 2.69140625 7.4609375 C1.92325849 13.21107216 1.88721929 18.8311148 1.9375 24.625 C1.94201172 25.62917969 1.94652344 26.63335938 1.95117188 27.66796875 C1.96281033 30.11204471 1.9791576 32.5559882 2 35 C1.01 35.495 1.01 35.495 0 36 C0 24.12 0 12.24 0 0 Z M-5 36 C-3.35 36 -1.7 36 0 36 C0 36.66 0 37.32 0 38 C-1.65 37.67 -3.3 37.34 -5 37 C-5 36.67 -5 36.34 -5 36 Z " fill="#09080A" transform="translate(676,498)"/>
<path d="M0 0 C-0.99 0.33 -1.98 0.66 -3 1 C-3 1.66 -3 2.32 -3 3 C-4.6396875 3.37125 -4.6396875 3.37125 -6.3125 3.75 C-10.05908409 5.02002851 -11.10595266 5.65756352 -13 9 C-15.97 8.505 -15.97 8.505 -19 8 C-15.85980158 -0.79255559 -7.9034669 -0.5062719 0 0 Z " fill="#F0EFF2" transform="translate(524,498)"/>
<path d="M0 0 C0.74056641 0.02255859 1.48113281 0.04511719 2.24414062 0.06835938 C4.05947357 0.1269185 5.87375681 0.21659114 7.6875 0.3125 C5.875 2.3125 5.875 2.3125 3.6875 4.3125 C2.6975 4.3125 1.7075 4.3125 0.6875 4.3125 C0.6875 3.3225 0.6875 2.3325 0.6875 1.3125 C-1.31711299 1.96516469 -3.31629834 2.63454472 -5.3125 3.3125 C-6.17875 3.5290625 -7.045 3.745625 -7.9375 3.96875 C-10.64081087 5.13817985 -10.64081087 5.13817985 -11.23828125 8.3515625 C-11.36589844 9.53492188 -11.49351562 10.71828125 -11.625 11.9375 C-11.76550781 13.12601562 -11.90601563 14.31453125 -12.05078125 15.5390625 C-12.13714844 16.45429688 -12.22351563 17.36953125 -12.3125 18.3125 C-12.6425 18.3125 -12.9725 18.3125 -13.3125 18.3125 C-13.4482683 16.25183896 -13.54483903 14.18857243 -13.625 12.125 C-13.68300781 10.97644531 -13.74101562 9.82789063 -13.80078125 8.64453125 C-13.3125 5.3125 -13.3125 5.3125 -11.3125 2.40625 C-7.35729458 -0.35415378 -4.68634813 -0.27221861 0 0 Z " fill="#B4A6D3" transform="translate(220.3125,463.6875)"/>
<path d="M0 0 C0.66 0 1.32 0 2 0 C3.30716194 5.14150363 4.14897014 10.01514037 4.5 15.3125 C5.04233359 23.4284746 5.74333001 31.47831868 9 39 C8.01 38.67 7.02 38.34 6 38 C2.56832066 29.31986991 2.187712 19.26541065 1.21875 10.04296875 C0.85966173 6.68934077 0.42582025 3.3457305 0 0 Z " fill="#CBB4E7" transform="translate(221,502)"/>
<path d="M0 0 C1.32 0 2.64 0 4 0 C3.22437186 5.04158293 0.00671871 8.7564063 -3.125 12.625 C-4.76779496 14.70587362 -5.92873974 16.58966442 -7 19 C-8.36125435 14.91623695 -6.78490499 12.66375234 -5 9 C-4.47599609 7.91138672 -4.47599609 7.91138672 -3.94140625 6.80078125 C-1.19278169 1.19278169 -1.19278169 1.19278169 0 0 Z " fill="#998BB9" transform="translate(335,452)"/>
<path d="M0 0 C1.485 0.99 1.485 0.99 3 2 C3.35644531 4.30664062 3.35644531 4.30664062 3.328125 7.15625 C3.32039062 8.68958984 3.32039062 8.68958984 3.3125 10.25390625 C3.291875 11.32511719 3.27125 12.39632812 3.25 13.5 C3.24484375 14.57121094 3.2396875 15.64242187 3.234375 16.74609375 C3.15421895 24.6915621 3.15421895 24.6915621 2 27 C1.34 27 0.68 27 0 27 C0 18.09 0 9.18 0 0 Z " fill="#242426" transform="translate(573,508)"/>
<path d="M0 0 C2.68292289 1.34146144 2.87704062 2.69589996 4 5.4375 C5.14709767 8.22906973 5.84618666 9.84618666 8 12 C8.70710678 13.64991582 9.37943989 15.31562256 10 17 C11.00824858 14.58020341 11.93602818 12.32899792 12.4375 9.75 C12.623125 9.1725 12.80875 8.595 13 8 C13.99 7.67 14.98 7.34 16 7 C14.36041242 12.23272633 12.61047965 17.15196636 10 22 C7.05377618 18.45546612 5.23016942 14.58911417 3.3125 10.4375 C2.99216797 9.76525391 2.67183594 9.09300781 2.34179688 8.40039062 C0.95874838 5.43081743 0 3.31483057 0 0 Z " fill="#26262A" transform="translate(476,501)"/>
<path d="M0 0 C0.33 0 0.66 0 1 0 C1 3.96 1 7.92 1 12 C0.67 12 0.34 12 0 12 C-0.33 9.69 -0.66 7.38 -1 5 C-1.99 6.98 -2.98 8.96 -4 11 C-7 10 -7 10 -9 7 C-9.33 8.65 -9.66 10.3 -10 12 C-10.66 12 -11.32 12 -12 12 C-12 8.37 -12 4.74 -12 1 C-8.23145777 2.25618074 -7.92041544 3.66014706 -6 7 C-5.34 7.33 -4.68 7.66 -4 8 C-3.71125 7.236875 -3.4225 6.47375 -3.125 5.6875 C-2 3 -2 3 0 0 Z " fill="#A8A7AC" transform="translate(536,553)"/>
<path d="M0 0 C2.3125 -0.3125 2.3125 -0.3125 5 0 C6.6875 2.4375 6.6875 2.4375 8 5 C8.66 5.33 9.32 5.66 10 6 C10 6.99 10 7.98 10 9 C12.97 9 15.94 9 19 9 C19 9.33 19 9.66 19 10 C9.23008174 10.62583106 9.23008174 10.62583106 4.4375 8.1875 C2 6 2 6 0 3 C0 2.01 0 1.02 0 0 Z " fill="#E0E0E2" transform="translate(597,524)"/>
<path d="M0 0 C0.66 0.99 1.32 1.98 2 3 C1.125 6.1875 1.125 6.1875 0 9 C-0.66 9 -1.32 9 -2 9 C-1.67 9.99 -1.34 10.98 -1 12 C-2.98 12 -4.96 12 -7 12 C-7 9.03 -7 6.06 -7 3 C-4.69 3 -2.38 3 0 3 C0 2.01 0 1.02 0 0 Z " fill="#1F1E24" transform="translate(514,552)"/>
<path d="M0 0 C1.70884005 1.62339805 3.37446717 3.29319053 5 5 C5 5.66 5 6.32 5 7 C5.4125 6.5875 5.825 6.175 6.25 5.75 C9.125 2.875 9.125 2.875 12 0 C13.28317892 3.84953676 13.06643637 6.94738135 13 11 C12.34 11 11.68 11 11 11 C10.67 9.02 10.34 7.04 10 5 C8.515 7.475 8.515 7.475 7 10 C5.35 8.35 3.7 6.7 2 5 C1.67 7.31 1.34 9.62 1 12 C0.67 12 0.34 12 0 12 C0 8.04 0 4.08 0 0 Z " fill="#A2A2A7" transform="translate(581,554)"/>
<path d="M0 0 C0.33 0 0.66 0 1 0 C1.66 8.58 2.32 17.16 3 26 C4.65 26 6.3 26 8 26 C8 26.66 8 27.32 8 28 C5.125 28.625 5.125 28.625 2 29 C0 27 0 27 -0.22705078 24.29443359 C-0.21657715 23.17375488 -0.20610352 22.05307617 -0.1953125 20.8984375 C-0.18886719 19.68671875 -0.18242188 18.475 -0.17578125 17.2265625 C-0.15902344 15.95554687 -0.14226563 14.68453125 -0.125 13.375 C-0.11146484 11.456875 -0.11146484 11.456875 -0.09765625 9.5 C-0.07402303 6.33314833 -0.04107629 3.16666576 0 0 Z " fill="#29292B" transform="translate(808,502)"/>
<path d="M0 0 C6.57149385 -0.46753711 10.74342084 -0.46809228 16 4 C18 6 18 6 18 9 C16.35 9 14.7 9 13 9 C12.835 8.38125 12.67 7.7625 12.5 7.125 C10.70120552 4.57670782 10.015599 4.57146804 7.0625 3.9375 C6.37285156 3.82277344 5.68320312 3.70804687 4.97265625 3.58984375 C2.61678191 2.885414 1.5890545 1.83812261 0 0 Z " fill="#D7D9DA" transform="translate(606,498)"/>
<path d="M0 0 C10.23 0 20.46 0 31 0 C24.71016599 3.144917 21.04252104 3.00979066 14.0625 2.6875 C13.04736328 2.65205078 12.03222656 2.61660156 10.98632812 2.58007812 C9.52549805 2.51530273 9.52549805 2.51530273 8.03515625 2.44921875 C7.1419165 2.41143311 6.24867676 2.37364746 5.32836914 2.3347168 C3 2 3 2 0 0 Z " fill="#9582B8" transform="translate(254,464)"/>
<path d="M0 0 C0.66 0.99 1.32 1.98 2 3 C1.54625 3.78375 1.0925 4.5675 0.625 5.375 C-1.10959362 9.24447808 -1.86228047 12.7707512 -2.5703125 16.92578125 C-3 19 -3 19 -4 20 C-4.144375 21.155 -4.28875 22.31 -4.4375 23.5 C-4.623125 24.655 -4.80875 25.81 -5 27 C-5.66 27.33 -6.32 27.66 -7 28 C-6.87022055 19.81209652 -6.35082435 13.23134613 -2.15625 6.0859375 C-1.02368785 4.04273416 -0.45396924 2.2801637 0 0 Z " fill="#AC8FD3" transform="translate(343,462)"/>
<path d="M0 0 C0.66 0.33 1.32 0.66 2 1 C2.34862701 4.13764313 2.31908139 5.55966769 0.4375 8.15625 C-2.89769782 10.67902784 -5.1202036 10.40295542 -9.25 10.25 C-10.51328125 10.21390625 -11.7765625 10.1778125 -13.078125 10.140625 C-14.52445312 10.07101562 -14.52445312 10.07101562 -16 10 C-15.34 9.67 -14.68 9.34 -14 9 C-14 8.34 -14 7.68 -14 7 C-9.38 6.67 -4.76 6.34 0 6 C0 4.02 0 2.04 0 0 Z " fill="#A096BE" transform="translate(375,442)"/>
<path d="M0 0 C3.80026809 2.53351206 4.50840015 4.74894043 6 9 C5.67 9.99 5.34 10.98 5 12 C4.67 11.01 4.34 10.02 4 9 C1.69 9 -0.62 9 -3 9 C-2.5020163 5.26512223 -2.12508244 3.18762365 0 0 Z " fill="#7B7E82" transform="translate(643,553)"/>
<path d="M0 0 C2.0625 1.4375 2.0625 1.4375 4 4 C4.29889436 8.28677432 3.67518802 11.89269165 1.4375 15.5625 C0.963125 16.036875 0.48875 16.51125 0 17 C-2.125 4.25 -2.125 4.25 0 0 Z " fill="#58595D" transform="translate(698,550)"/>
<path d="M0 0 C1.70884005 1.62339805 3.37446717 3.29319053 5 5 C5 5.66 5 6.32 5 7 C5.4125 6.5875 5.825 6.175 6.25 5.75 C9.125 2.875 9.125 2.875 12 0 C12 3.63 12 7.26 12 11 C11.67 11 11.34 11 11 11 C10.67 9.02 10.34 7.04 10 5 C9.54625 5.825 9.0925 6.65 8.625 7.5 C8.08875 8.325 7.5525 9.15 7 10 C6.34 10 5.68 10 5 10 C3.375 7.5 3.375 7.5 2 5 C1.67 6.98 1.34 8.96 1 11 C0.67 11 0.34 11 0 11 C0 7.37 0 3.74 0 0 Z " fill="#A7A8AC" transform="translate(616,554)"/>
<path d="M0 0 C0.66 0.33 1.32 0.66 2 1 C1.835 1.67417969 1.67 2.34835937 1.5 3.04296875 C0.91172949 6.5220373 0.94235185 9.78515397 1 13.3125 C1.04190099 18.66535169 0.86174157 23.72183287 0 29 C-0.33 29 -0.66 29 -1 29 C-1.02891546 24.54168018 -1.04676981 20.08338431 -1.0625 15.625 C-1.07087891 14.35398437 -1.07925781 13.08296875 -1.08789062 11.7734375 C-1.09111328 10.56171875 -1.09433594 9.35 -1.09765625 8.1015625 C-1.10289307 6.98088379 -1.10812988 5.86020508 -1.11352539 4.70556641 C-1 2 -1 2 0 0 Z " fill="#090809" transform="translate(641,504)"/>
<path d="M0 0 C0.66 0.33 1.32 0.66 2 1 C1.566875 1.93972656 1.566875 1.93972656 1.125 2.8984375 C0.75375 3.71570313 0.3825 4.53296875 0 5.375 C-0.37125 6.18710937 -0.7425 6.99921875 -1.125 7.8359375 C-2.12495013 9.91998433 -2.12495013 9.91998433 -2 12 C-1.67 11.34 -1.34 10.68 -1 10 C-0.01 10.33 0.98 10.66 2 11 C0.875 12.5 0.875 12.5 -1 14 C-4.1875 14.1875 -4.1875 14.1875 -7 14 C-7.33 13.01 -7.66 12.02 -8 11 C-7 9 -7 9 -5.125 8.3125 C-1.84421501 6.2861328 -1.32083771 3.56626181 0 0 Z " fill="#0E0E12" transform="translate(771,553)"/>
<path d="M0 0 C1.32 0 2.64 0 4 0 C4.84454356 3.37817425 5.10844919 5.67465243 4 9 C4.66 9.33 5.32 9.66 6 10 C4.35 10.33 2.7 10.66 1 11 C-1.42857143 3.57142857 -1.42857143 3.57142857 0 0 Z " fill="#CCBDEC" transform="translate(238,559)"/>
<path d="M0 0 C0.33 0 0.66 0 1 0 C1.125 2.875 1.125 2.875 1 6 C0.34 6.66 -0.32 7.32 -1 8 C-1.50672983 9.44223106 -1.95956502 10.90387141 -2.375 12.375 C-3.56806646 16.1744578 -4.80662722 18.46732503 -8 21 C-7.301897 16.49723568 -5.71324524 12.44421829 -4 8.25 C-3.59007812 7.22326172 -3.59007812 7.22326172 -3.171875 6.17578125 C-1.13600498 1.13600498 -1.13600498 1.13600498 0 0 Z " fill="#2F2E34" transform="translate(494,513)"/>
<path d="M0 0 C2.5 0.125 2.5 0.125 3.5 1.125 C3.54080783 3.12458364 3.54254356 5.12545254 3.5 7.125 C1.6875 7.75 1.6875 7.75 -0.5 8.125 C-1.49 7.465 -2.48 6.805 -3.5 6.125 C-3.75 3.5625 -3.75 3.5625 -3.5 1.125 C-2.5 0.125 -2.5 0.125 0 0 Z " fill="#F0F0F1" transform="translate(586.5,485.875)"/>
<path d="M0 0 C0.99 0.33 1.98 0.66 3 1 C0.25 5.875 0.25 5.875 -2 7 C-2.33 15.25 -2.66 23.5 -3 32 C-3.33 32 -3.66 32 -4 32 C-4.11605098 27.41687916 -4.18720362 22.83413551 -4.25 18.25 C-4.28351562 16.94804688 -4.31703125 15.64609375 -4.3515625 14.3046875 C-4.36445312 13.05429687 -4.37734375 11.80390625 -4.390625 10.515625 C-4.41157227 9.36352539 -4.43251953 8.21142578 -4.45410156 7.02441406 C-3.90987571 3.39975285 -2.80542794 2.26181561 0 0 Z " fill="#000000" transform="translate(555,502)"/>
<path d="M0 0 C2.475 0.99 2.475 0.99 5 2 C4.6875 3.9375 4.6875 3.9375 4 6 C1 7 1 7 -1 7 C-2.69774938 8.29352333 -4.36739286 9.62517293 -6 11 C-6 9.02 -6 7.04 -6 5 C-5.01 5.33 -4.02 5.66 -3 6 C-2.01 4.02 -1.02 2.04 0 0 Z " fill="#212226" transform="translate(686,549)"/>
<path d="M0 0 C0 0.99 0 1.98 0 3 C-6.93 3 -13.86 3 -21 3 C-21 2.34 -21 1.68 -21 1 C-18.43761495 0.83138242 -15.87511576 0.66504227 -13.3125 0.5 C-12.59126953 0.45230469 -11.87003906 0.40460938 -11.12695312 0.35546875 C-7.41171286 0.11796481 -3.72305126 -0.05874637 0 0 Z " fill="#0B0D11" transform="translate(501,461)"/>
<path d="M0 0 C0.99773438 0.02320313 1.99546875 0.04640625 3.0234375 0.0703125 C4.52777344 0.09738281 4.52777344 0.09738281 6.0625 0.125 C6.83335937 0.14820313 7.60421875 0.17140625 8.3984375 0.1953125 C8.7284375 1.1853125 9.0584375 2.1753125 9.3984375 3.1953125 C5.14043212 4.61464763 1.16932212 4.92182927 -3.0390625 3.1953125 C-3.5546875 2.8653125 -4.0703125 2.5353125 -4.6015625 2.1953125 C-2.6015625 0.1953125 -2.6015625 0.1953125 0 0 Z " fill="#47474B" transform="translate(716.6015625,551.8046875)"/>
<path d="M0 0 C2.97 0.495 2.97 0.495 6 1 C5.25 6.75 5.25 6.75 3 9 C1.76709799 11.45704762 1.76709799 11.45704762 1 14 C1.33 14.66 1.66 15.32 2 16 C0.68 16.33 -0.64 16.66 -2 17 C-1.37321829 13.33827525 -0.35548154 10.1181005 1.0625 6.6875 C1.42472656 5.80449219 1.78695313 4.92148437 2.16015625 4.01171875 C2.43730469 3.34785156 2.71445312 2.68398438 3 2 C2.01 2 1.02 2 0 2 C0 1.34 0 0.68 0 0 Z " fill="#252427" transform="translate(502,484)"/>
<path d="M0 0 C0.86625 0.3403125 0.86625 0.3403125 1.75 0.6875 C0.1 1.0175 -1.55 1.3475 -3.25 1.6875 C-3.29241723 4.02044775 -3.29092937 6.35452567 -3.25 8.6875 C-2.06575674 10.10327477 -2.06575674 10.10327477 1.3125 9.75 C3.0140625 9.7190625 3.0140625 9.7190625 4.75 9.6875 C4.75 10.3475 4.75 11.0075 4.75 11.6875 C1.92116253 13.10191874 -0.12376745 13.00650332 -3.25 12.6875 C-5.83525068 10.44694941 -6.20386189 9.0104668 -6.6875 5.625 C-6.25 2.6875 -6.25 2.6875 -4.5 0.75 C-2.25 -0.3125 -2.25 -0.3125 0 0 Z " fill="#939297" transform="translate(794.25,553.3125)"/>
<path d="M0 0 C2 1 2 1 3.125 4.0625 C3.41375 5.031875 3.7025 6.00125 4 7 C4.66 5.68 5.32 4.36 6 3 C6 5.31 6 7.62 6 10 C4.34385343 10.38218767 2.67542976 10.71395102 1 11 C0 10 0 10 -0.09765625 7.71484375 C-0.08605469 6.79832031 -0.07445312 5.88179687 -0.0625 4.9375 C-0.05347656 4.01839844 -0.04445313 3.09929688 -0.03515625 2.15234375 C-0.02355469 1.44207031 -0.01195312 0.73179687 0 0 Z " fill="#050508" transform="translate(562,553)"/>
<path d="M0 0 C0 0.66 0 1.32 0 2 C-2.046875 3.40234375 -2.046875 3.40234375 -4.75 4.9375 C-8.00075249 6.79575179 -11.04959258 8.69068578 -14 11 C-13.3455839 7.46615305 -12.2349452 4.83093059 -10 2 C-6.49990992 0.68746622 -3.73480651 0 0 0 Z " fill="#AE9ED0" transform="translate(358,451)"/>
<path d="M0 0 C1.24136719 0.47566406 1.24136719 0.47566406 2.5078125 0.9609375 C6.31847819 2.09475973 9.93226312 2.44161689 13.875 2.625 C14.56335938 2.66367187 15.25171875 2.70234375 15.9609375 2.7421875 C17.64023246 2.83548166 19.32007767 2.91878238 21 3 C16.25 7.875 16.25 7.875 14 9 C13.67 7.68 13.34 6.36 13 5 C12.22914063 4.89042969 11.45828125 4.78085937 10.6640625 4.66796875 C9.15972656 4.43013672 9.15972656 4.43013672 7.625 4.1875 C6.62726563 4.03667969 5.62953125 3.88585937 4.6015625 3.73046875 C2 3 2 3 0 0 Z " fill="#120D18" transform="translate(219,555)"/>
<path d="M0 0 C-0.66 1.65 -1.32 3.3 -2 5 C-3.11375 4.979375 -4.2275 4.95875 -5.375 4.9375 C-8.83215921 4.73619282 -8.83215921 4.73619282 -11 6 C-10.67 4.35 -10.34 2.7 -10 1 C-6.61981469 -0.04005702 -3.5219721 -0.08004482 0 0 Z " fill="#E5E5E7" transform="translate(653,498)"/>
<path d="M0 0 C0.28875 0.639375 0.5775 1.27875 0.875 1.9375 C1.82823451 4.15206079 1.82823451 4.15206079 4 5 C1.88641722 7.72720359 0.2586329 9.75312279 -3.23046875 10.4375 C-9.30953708 10.59617063 -9.30953708 10.59617063 -11.7734375 8.46875 C-12.17820313 7.9840625 -12.58296875 7.499375 -13 7 C-12.484375 7.165 -11.96875 7.33 -11.4375 7.5 C-8.26636124 8.15049 -5.22781666 8.0620734 -2 8 C-1.34 5.36 -0.68 2.72 0 0 Z " fill="#7B7785" transform="translate(250,575)"/>
<path d="M0 0 C2.5 0.875 2.5 0.875 3.8125 3.1875 C4.5 5.875 4.5 5.875 4.5 9.875 C3.18 10.205 1.86 10.535 0.5 10.875 C0.5 8.565 0.5 6.255 0.5 3.875 C-1.15 3.545 -2.8 3.215 -4.5 2.875 C-4.5 2.215 -4.5 1.555 -4.5 0.875 C-2.5 -0.125 -2.5 -0.125 0 0 Z " fill="#1A1A1D" transform="translate(588.5,483.125)"/>
<path d="M0 0 C0.99 0 1.98 0 3 0 C4.00508801 1.78881736 5.00392736 3.58114696 6 5.375 C6.8353125 6.87160156 6.8353125 6.87160156 7.6875 8.3984375 C9 11 9 11 9 13 C9.99 13.33 10.98 13.66 12 14 C11 15 11 15 7.9375 15.0625 C6.968125 15.041875 5.99875 15.02125 5 15 C5.30744141 14.13761719 5.30744141 14.13761719 5.62109375 13.2578125 C6.09826898 10.41443847 5.46253205 9.35451805 4.0625 6.875 C2 3.16949153 2 3.16949153 2 1 C1.34 0.67 0.68 0.34 0 0 Z " fill="#101014" transform="translate(773,552)"/>
<path d="M0 0 C0.33 0 0.66 0 1 0 C1.66 2.97 2.32 5.94 3 9 C4.65 8.67 6.3 8.34 8 8 C8.33 5.36 8.66 2.72 9 0 C9.33 0 9.66 0 10 0 C10.05422947 1.4370809 10.09289723 2.87475462 10.125 4.3125 C10.14820313 5.11300781 10.17140625 5.91351562 10.1953125 6.73828125 C10 9 10 9 8 12 C5.6568787 11.74438677 3.32156597 11.40729228 1 11 C-0.20272819 8.59454362 -0.10071472 7.05003047 -0.0625 4.375 C-0.05347656 3.55773437 -0.04445313 2.74046875 -0.03515625 1.8984375 C-0.02355469 1.27195312 -0.01195312 0.64546875 0 0 Z " fill="#AAA9AE" transform="translate(560,554)"/>
<path d="M0 0 C1 2 1 2 0.5 3.875 C-0.1770155 6.00490108 -0.1770155 6.00490108 0.5625 8.125 C0.706875 8.74375 0.85125 9.3625 1 10 C0.34 10.66 -0.32 11.32 -1 12 C-3 11.9375 -3 11.9375 -5 11 C-6.25 8.4375 -6.25 8.4375 -7 6 C-6.01 6.33 -5.02 6.66 -4 7 C-2.68 4.69 -1.36 2.38 0 0 Z " fill="#757575" transform="translate(703,513)"/>
<path d="M0 0 C2.25 -0.25 2.25 -0.25 5 0 C7.3125 2 7.3125 2 9 4 C9 3.34 9 2.68 9 2 C9.66 2 10.32 2 11 2 C11.33 2.99 11.66 3.98 12 5 C5.375 5.125 5.375 5.125 2 4 C1.01 4.495 1.01 4.495 0 5 C0 3.35 0 1.7 0 0 Z " fill="#0E1013" transform="translate(660,562)"/>
<path d="M0 0 C0.66 0 1.32 0 2 0 C2 1.65 2 3.3 2 5 C-2.455 5.495 -2.455 5.495 -7 6 C-7 4.68 -7 3.36 -7 2 C-4.69 2 -2.38 2 0 2 C0 1.34 0 0.68 0 0 Z " fill="#090C0E" transform="translate(817,553)"/>
<path d="M0 0 C0 3.85331878 -0.35724102 5.15724845 -3 8 C-6.57150746 8.646003 -10.07309766 8.46757337 -13.6875 8.3125 C-14.67556641 8.28994141 -15.66363281 8.26738281 -16.68164062 8.24414062 C-19.12261559 8.18517988 -21.56054868 8.10295048 -24 8 C-24 7.67 -24 7.34 -24 7 C-22.75863281 6.98582031 -21.51726562 6.97164063 -20.23828125 6.95703125 C-18.59631757 6.910118 -16.95439163 6.86187068 -15.3125 6.8125 C-14.49587891 6.80669922 -13.67925781 6.80089844 -12.83789062 6.79492188 C-8.37380874 6.63226302 -6.54233075 6.44691422 -2.98046875 3.51171875 C-2.32691406 2.68285156 -1.67335938 1.85398437 -1 1 C-0.67 0.67 -0.34 0.34 0 0 Z " fill="#271C3E" transform="translate(332,456)"/>
<path d="M0 0 C1.258125 -0.02578125 2.51625 -0.0515625 3.8125 -0.078125 C5.3903125 0.08429688 5.3903125 0.08429688 7 0.25 C7.66 1.24 8.32 2.23 9 3.25 C8.13117188 3.14300781 7.26234375 3.03601563 6.3671875 2.92578125 C-2.32127085 1.85541254 -2.32127085 1.85541254 -10 5.25 C-9.625 3.3125 -9.625 3.3125 -9 1.25 C-6.03144127 -0.23427936 -3.30088341 0.04058463 0 0 Z " fill="#A49BC3" transform="translate(366,438.75)"/>
<path d="M0 0 C2.64 0 5.28 0 8 0 C8.625 1.875 8.625 1.875 9 4 C8.34 4.66 7.68 5.32 7 6 C7 5.34 7 4.68 7 4 C4.69 4 2.38 4 0 4 C0 2.68 0 1.36 0 0 Z " fill="#0B0D10" transform="translate(810,560)"/>
<path d="M0 0 C0.66 0 1.32 0 2 0 C2 4.29 2 8.58 2 13 C2.66 13 3.32 13 4 13 C3.67 13.99 3.34 14.98 3 16 C0.984375 14.91796875 0.984375 14.91796875 -1 13 C-1.171875 9.86328125 -1.171875 9.86328125 -0.75 6.3125 C-0.62109375 5.13300781 -0.4921875 3.95351563 -0.359375 2.73828125 C-0.24078125 1.83464844 -0.1221875 0.93101562 0 0 Z " fill="#34323D" transform="translate(465,553)"/>
<path d="M0 0 C1.67542976 0.28604898 3.34385343 0.61781233 5 1 C4.34 2.65 3.68 4.3 3 6 C0.03 5.505 0.03 5.505 -3 5 C-1.125 1.125 -1.125 1.125 0 0 Z " fill="#F6F5F8" transform="translate(508,501)"/>
<path d="M0 0 C2.90065771 1.45032886 3.35265712 3.4605293 4.6875 6.375 C5.14511719 7.35210938 5.60273438 8.32921875 6.07421875 9.3359375 C7 12 7 12 6 15 C4 12 4 12 4 9 C2.68 9 1.36 9 0 9 C0 6.03 0 3.06 0 0 Z " fill="#343339" transform="translate(472,514)"/>
<path d="M0 0 C0.66 0 1.32 0 2 0 C1.67 1.65 1.34 3.3 1 5 C-1.31 5.66 -3.62 6.32 -6 7 C-6.33 9.31 -6.66 11.62 -7 14 C-7.33 14 -7.66 14 -8 14 C-8 10.7 -8 7.4 -8 4 C-4.535 3.505 -4.535 3.505 -1 3 C-0.67 2.01 -0.34 1.02 0 0 Z " fill="#040506" transform="translate(817,498)"/>
<path d="M0 0 C0.99 0 1.98 0 3 0 C2.49287967 3.71888239 1.88391785 6.73454239 0 10 C-0.66 10 -1.32 10 -2 10 C-1.54177532 6.53058454 -1.10868317 3.32604951 0 0 Z " fill="#F1F0F5" transform="translate(494,503)"/>
<path d="M0 0 C5.61 0 11.22 0 17 0 C17 0.66 17 1.32 17 2 C10.72532201 3.0748291 6.09339169 2.88341198 0 1 C0 0.67 0 0.34 0 0 Z " fill="#9785BA" transform="translate(296,464)"/>
<path d="M0 0 C0.33 0 0.66 0 1 0 C1 3.63 1 7.26 1 11 C4.3 11 7.6 11 11 11 C11.33 10.34 11.66 9.68 12 9 C12 9.99 12 10.98 12 12 C2.58997722 13.51708428 2.58997722 13.51708428 -2 11 C-1.67 10.34 -1.34 9.68 -1 9 C-0.77532169 7.46331135 -0.59203195 5.92031946 -0.4375 4.375 C-0.35371094 3.55773437 -0.26992188 2.74046875 -0.18359375 1.8984375 C-0.12300781 1.27195312 -0.06242188 0.64546875 0 0 Z " fill="#010105" transform="translate(807,555)"/>
<path d="M0 0 C0.66 0 1.32 0 2 0 C3.0625 1.8125 3.0625 1.8125 4 4 C3.67 4.99 3.34 5.98 3 7 C2.67 5.68 2.34 4.36 2 3 C1.34 3 0.68 3 0 3 C-0.19335938 3.63808594 -0.38671875 4.27617188 -0.5859375 4.93359375 C-0.84632813 5.75988281 -1.10671875 6.58617187 -1.375 7.4375 C-1.75785156 8.67306641 -1.75785156 8.67306641 -2.1484375 9.93359375 C-3 12 -3 12 -5 13 C-4.39254603 8.14036821 -2.27241033 4.2594482 0 0 Z " fill="#ADAEB2" transform="translate(773,553)"/>
<path d="M0 0 C1.65 0 3.3 0 5 0 C5.33 1.65 5.66 3.3 6 5 C4.02 5 2.04 5 0 5 C0 3.35 0 1.7 0 0 Z " fill="#17161D" transform="translate(488,555)"/>
<path d="M0 0 C0.66 0 1.32 0 2 0 C1.39009109 3.55780196 0.4216319 6.6828589 -1 10 C-1.99 9.34 -2.98 8.68 -4 8 C-2.25 2.25 -2.25 2.25 0 0 Z " fill="#EEEEEF" transform="translate(706,511)"/>
<path d="M0 0 C0 0.33 0 0.66 0 1 C-0.66386719 1.09796875 -1.32773437 1.1959375 -2.01171875 1.296875 C-7.37285726 2.20474663 -11.02036413 3.02036413 -15 7 C-15.66 6.67 -16.32 6.34 -17 6 C-13.41555241 1.60616102 -10.62153937 0.27874001 -5.0859375 -0.8359375 C-3 -1 -3 -1 0 0 Z " fill="#1B1B1F" transform="translate(521,497)"/>
<path d="M0 0 C1.98 0.66 3.96 1.32 6 2 C5.67 2.99 5.34 3.98 5 5 C5.33 5.99 5.66 6.98 6 8 C4.68 7.67 3.36 7.34 2 7 C1.34 4.69 0.68 2.38 0 0 Z " fill="#A7A0B0" transform="translate(287,575)"/>
<path d="M0 0 C1.093125 0.0825 2.18625 0.165 3.3125 0.25 C3.6425 1.24 3.9725 2.23 4.3125 3.25 C5.3025 3.58 6.2925 3.91 7.3125 4.25 C6.3225 4.745 6.3225 4.745 5.3125 5.25 C2.95268187 4.31421005 0.61618736 3.31652192 -1.6875 2.25 C-2.6775 3.24 -3.6675 4.23 -4.6875 5.25 C-5.3475 4.92 -6.0075 4.59 -6.6875 4.25 C-4.79150483 0.68106792 -4.16790733 0.28256999 0 0 Z " fill="#06070A" transform="translate(643.6875,562.75)"/>
<path d="M0 0 C0.99 0.33 1.98 0.66 3 1 C2.34 1.639375 1.68 2.27875 1 2.9375 C-1.67238509 7.02958968 -1.51931803 10.24100363 -1 15 C-0.69431829 16.33994313 -0.36923454 17.67615909 0 19 C-2.24688791 17.22864392 -2.94459771 16.35088119 -3.3984375 13.4765625 C-3.32065029 4.01245244 -3.32065029 4.01245244 0 0 Z " fill="#2A2630" transform="translate(288,560)"/>
<path d="M0 0 C1.65 0 3.3 0 5 0 C5.5625 1.9375 5.5625 1.9375 6 4 C5 5 5 5 2.4375 5.0625 C1.2309375 5.0315625 1.2309375 5.0315625 0 5 C0 3.35 0 1.7 0 0 Z " fill="#232229" transform="translate(469,555)"/>
<path d="M0 0 C0.99 0.33 1.98 0.66 3 1 C2.01 1.66 1.02 2.32 0 3 C-0.16666667 6.5 -0.16666667 6.5 0 10 C-0.33 10.66 -0.66 11.32 -1 12 C-1.99 11.67 -2.98 11.34 -4 11 C-3.71890887 9.35232753 -3.42481474 7.70686855 -3.125 6.0625 C-2.96257813 5.14597656 -2.80015625 4.22945312 -2.6328125 3.28515625 C-2.42398438 2.53105469 -2.21515625 1.77695312 -2 1 C-1.34 0.67 -0.68 0.34 0 0 Z " fill="#0D0D11" transform="translate(789,553)"/>
<path d="M0 0 C3.40320742 1.01176437 4.75725331 1.64843582 6.8125 4.625 C7.204375 5.40875 7.59625 6.1925 8 7 C7.01 7.495 7.01 7.495 6 8 C5.67 8.66 5.34 9.32 5 10 C4.62875 8.88625 4.62875 8.88625 4.25 7.75 C2.90852699 4.79875938 1.39094474 3.15185026 -1 1 C-0.67 0.67 -0.34 0.34 0 0 Z " fill="#111314" transform="translate(619,498)"/>
<path d="M0 0 C0.309375 0.639375 0.61875 1.27875 0.9375 1.9375 C1.8345163 3.93610821 1.8345163 3.93610821 3 5 C3.35897436 11.46153846 3.35897436 11.46153846 1 15 C0.15318867 9.91913204 -0.09038099 5.15171623 0 0 Z " fill="#CDBEDE" transform="translate(211,506)"/>
<path d="M0 0 C1.4540625 0.0309375 1.4540625 0.0309375 2.9375 0.0625 C2.6075 1.3825 2.2775 2.7025 1.9375 4.0625 C1.9375 3.4025 1.9375 2.7425 1.9375 2.0625 C-2.5175 3.5475 -2.5175 3.5475 -7.0625 5.0625 C-7.7225 4.4025 -8.3825 3.7425 -9.0625 3.0625 C-8.258125 2.753125 -7.45375 2.44375 -6.625 2.125 C-1.57765152 0.03219697 -1.57765152 0.03219697 0 0 Z " fill="#121312" transform="translate(797.0625,501.9375)"/>
<path d="M0 0 C0 2.31 0 4.62 0 7 C-1.32 7.33 -2.64 7.66 -4 8 C-4 7.34 -4 6.68 -4 6 C-4.66 5.67 -5.32 5.34 -6 5 C-1.125 0 -1.125 0 0 0 Z " fill="#696A6E" transform="translate(687,554)"/>
<path d="M0 0 C1.65 0 3.3 0 5 0 C5.5625 1.9375 5.5625 1.9375 6 4 C5 5 5 5 2.4375 5.0625 C1.2309375 5.0315625 1.2309375 5.0315625 0 5 C0 3.35 0 1.7 0 0 Z M1 2 C2 4 2 4 2 4 Z " fill="#06080B" transform="translate(661,555)"/>
<path d="M0 0 C0.99 0.33 1.98 0.66 3 1 C3 1.66 3 2.32 3 3 C2.38125 3.144375 1.7625 3.28875 1.125 3.4375 C-1.03258322 3.93152225 -1.03258322 3.93152225 -3 5 C-4.87379605 5.07033769 -6.75001102 5.0843022 -8.625 5.0625 C-9.62789062 5.05347656 -10.63078125 5.04445313 -11.6640625 5.03515625 C-12.43492187 5.02355469 -13.20578125 5.01195312 -14 5 C-14 4.67 -14 4.34 -14 4 C-13.40832031 3.96261719 -12.81664062 3.92523437 -12.20703125 3.88671875 C-7.27211276 3.47614641 -4.21810173 2.72935995 0 0 Z " fill="#19181A" transform="translate(754,530)"/>
<path d="M0 0 C1.9375 0.75 1.9375 0.75 4 2 C4.75 4.125 4.75 4.125 5 6 C3.35 6 1.7 6 0 6 C-0.38218767 4.34385343 -0.71395102 2.67542976 -1 1 C-0.67 0.67 -0.34 0.34 0 0 Z " fill="#E7E9EA" transform="translate(619,501)"/>
<path d="M0 0 C0.66 0.99 1.32 1.98 2 3 C1.54625 3.845625 1.0925 4.69125 0.625 5.5625 C-1.02858414 9.06046645 -2.03009521 12.26959695 -3 16 C-3.33 16 -3.66 16 -4 16 C-4.30095713 10.88372874 -3.85699442 8.22835174 -1 4 C-0.30420546 1.80869466 -0.30420546 1.80869466 0 0 Z " fill="#9F86C5" transform="translate(343,462)"/>
<path d="M0 0 C0.99 0.33 1.98 0.66 3 1 C3.33 2.65 3.66 4.3 4 6 C3.01 6.66 2.02 7.32 1 8 C0.34 7.67 -0.32 7.34 -1 7 C-0.67 4.69 -0.34 2.38 0 0 Z " fill="#E2DCEA" transform="translate(233,565)"/>
<path d="M0 0 C4 4.625 4 4.625 4 8 C3.01 8 2.02 8 1 8 C0.67 8.99 0.34 9.98 0 11 C-1.26026798 8.47946405 -0.91874445 7.1457902 -0.5625 4.375 C-0.46066406 3.55773437 -0.35882812 2.74046875 -0.25390625 1.8984375 C-0.17011719 1.27195312 -0.08632813 0.64546875 0 0 Z " fill="#100F14" transform="translate(582,557)"/>
<path d="M0 0 C0.33 0 0.66 0 1 0 C1.33 4.29 1.66 8.58 2 13 C1.01 13.66 0.02 14.32 -1 15 C-1.99 14.34 -2.98 13.68 -4 13 C-3.27876953 12.41798828 -3.27876953 12.41798828 -2.54296875 11.82421875 C-0.54250502 9.45911353 -0.51123932 7.87308547 -0.3125 4.8125 C-0.21388672 3.46091797 -0.21388672 3.46091797 -0.11328125 2.08203125 C-0.05720703 1.05142578 -0.05720703 1.05142578 0 0 Z " fill="#121216" transform="translate(570,553)"/>
<path d="M0 0 C3 1 3 1 4 3 C5.32 3 6.64 3 8 3 C7.34 4.65 6.68 6.3 6 8 C5.34 8 4.68 8 4 8 C0 2.58823529 0 2.58823529 0 0 Z " fill="#131317" transform="translate(617,553)"/>
<path d="M0 0 C3.63 0 7.26 0 11 0 C11.33 0.66 11.66 1.32 12 2 C8.95016004 3.52491998 6.3576631 3.23562548 3 3 C2.01 2.01 1.02 1.02 0 0 Z " fill="#1C1B1D" transform="translate(604,528)"/>
<path d="M0 0 C0 3.59857954 -0.95830515 5.09451118 -3 8 C-3.66 8 -4.32 8 -5 8 C-5.66 6.35 -6.32 4.7 -7 3 C-6.01 3.33 -5.02 3.66 -4 4 C-2.68 2.68 -1.36 1.36 0 0 Z " fill="#101013" transform="translate(591,553)"/>
<path d="M0 0 C0.99 0.33 1.98 0.66 3 1 C1.87926138 1.83905565 0.75325453 2.67107831 -0.375 3.5 C-1.00148438 3.9640625 -1.62796875 4.428125 -2.2734375 4.90625 C-4 6 -4 6 -6 6 C-6.33 6.66 -6.66 7.32 -7 8 C-7 7.01 -7 6.02 -7 5 C-4.76671858 3.00180084 -2.68345751 1.34172876 0 0 Z " fill="#B09FD0" transform="translate(348,443)"/>
<path d="M0 0 C1.32 1.65 2.64 3.3 4 5 C3.34 6.65 2.68 8.3 2 10 C1.34 9.67 0.68 9.34 0 9 C0 6.03 0 3.06 0 0 Z " fill="#101115" transform="translate(617,557)"/>
<path d="M0 0 C0.99 0.33 1.98 0.66 3 1 C1.35 3.64 -0.3 6.28 -2 9 C-2.99 8.67 -3.98 8.34 -5 8 C-5 6 -5 6 -3.0625 4 C-2.381875 3.34 -1.70125 2.68 -1 2 C-0.67 1.34 -0.34 0.68 0 0 Z " fill="#131216" transform="translate(534,552)"/>
<path d="M0 0 C0.99 0.33 1.98 0.66 3 1 C1.12050295 4.57104439 -0.17053157 6.54744301 -4 8 C-3.50168276 4.31245243 -2.89932357 2.39509338 0 0 Z " fill="#151718" transform="translate(555,502)"/>
<path d="M0 0 C2 2 2 2 2.125 5.125 C2.08375 6.07375 2.0425 7.0225 2 8 C0.0625 7.1875 0.0625 7.1875 -2 6 C-2.33 5.01 -2.66 4.02 -3 3 C-2.01 2.01 -1.02 1.02 0 0 Z " fill="#D3CAE3" transform="translate(236,561)"/>
<path d="M0 0 C2.475 0.99 2.475 0.99 5 2 C4.67 3.32 4.34 4.64 4 6 C3.34 6 2.68 6 2 6 C2 5.34 2 4.68 2 4 C1.01 3.67 0.02 3.34 -1 3 C-0.67 2.01 -0.34 1.02 0 0 Z " fill="#08090D" transform="translate(686,549)"/>
<path d="M0 0 C0.66 0 1.32 0 2 0 C2.36256858 1.4562672 2.71479793 2.91511185 3.0625 4.375 C3.35833984 5.59316406 3.35833984 5.59316406 3.66015625 6.8359375 C4 9 4 9 3 11 C0.84694043 7.14243493 -0.39253254 4.44870215 0 0 Z " fill="#C2A9E4" transform="translate(221,502)"/>
<path d="M0 0 C0.66 0.33 1.32 0.66 2 1 C1.67 2.32 1.34 3.64 1 5 C2.65 5.33 4.3 5.66 6 6 C5.67 6.66 5.34 7.32 5 8 C2.69 7.34 0.38 6.68 -2 6 C-1.125 1.125 -1.125 1.125 0 0 Z " fill="#2A2C2D" transform="translate(734,501)"/>
<path d="M0 0 C0.78375 0.04125 1.5675 0.0825 2.375 0.125 C-0.43304268 3.08904505 -2.80815774 5.56999019 -6.625 7.125 C-4.07142857 0.19387755 -4.07142857 0.19387755 0 0 Z " fill="#212125" transform="translate(517.625,500.875)"/>
<path d="M0 0 C0.66 0.33 1.32 0.66 2 1 C1.01 2.32 0.02 3.64 -1 5 C-0.67 5.66 -0.34 6.32 0 7 C-1.98 7 -3.96 7 -6 7 C-4.77065985 3.31197956 -3.06140622 2.27643027 0 0 Z " fill="#574D71" transform="translate(342,445)"/>
<path d="M0 0 C0.33 0 0.66 0 1 0 C1 2.64 1 5.28 1 8 C-0.32 7.34 -1.64 6.68 -3 6 C-1.125 1.125 -1.125 1.125 0 0 Z " fill="#0B0B0F" transform="translate(626,558)"/>
<path d="M0 0 C0.66 0 1.32 0 2 0 C1.67 2.31 1.34 4.62 1 7 C0.01 6.67 -0.98 6.34 -2 6 C-2 4.68 -2 3.36 -2 2 C-1.34 2 -0.68 2 0 2 C0 1.34 0 0.68 0 0 Z " fill="#3E4145" transform="translate(668,559)"/>
<path d="M0 0 C1.32 0 2.64 0 4 0 C4 3.3 4 6.6 4 10 C2.33094759 6.66189518 1.1258614 3.53842155 0 0 Z " fill="#09080D" transform="translate(729,553)"/>
<path d="M0 0 C3.465 1.485 3.465 1.485 7 3 C7 3.99 7 4.98 7 6 C2.25 5.25 2.25 5.25 0 3 C0 2.01 0 1.02 0 0 Z " fill="#131516" transform="translate(605,505)"/>
<path d="M0 0 C0.99 0 1.98 0 3 0 C2.67 1.98 2.34 3.96 2 6 C1.01 6 0.02 6 -1 6 C-0.67 4.02 -0.34 2.04 0 0 Z " fill="#EBEBED" transform="translate(488,517)"/>
<path d="M0 0 C2.4375 0.75 2.4375 0.75 5 2 C5.8125 4.125 5.8125 4.125 6 6 C7.32 6.33 8.64 6.66 10 7 C8.35 7 6.7 7 5 7 C5 6.34 5 5.68 5 5 C4.34 5 3.68 5 3 5 C1.375 2.5 1.375 2.5 0 0 Z " fill="#1E2021" transform="translate(613,501)"/>
<path d="M0 0 C0.66 0 1.32 0 2 0 C3.25664978 2.90600261 4 4.79604584 4 8 C2.68 7.34 1.36 6.68 0 6 C0 4.02 0 2.04 0 0 Z " fill="#2F2E35" transform="translate(464,497)"/>
<path d="M0 0 C0.99 0 1.98 0 3 0 C2.49396008 2.16874252 2.00016187 3.99967627 1 6 C0.01 5.67 -0.98 5.34 -2 5 C-1.34 3.35 -0.68 1.7 0 0 Z " fill="#B4A2D8" transform="translate(336,452)"/>
<path d="M0 0 C1.5 1.125 1.5 1.125 3 3 C3.1875 6.1875 3.1875 6.1875 3 9 C1.5 7.875 1.5 7.875 0 6 C-0.1875 2.8125 -0.1875 2.8125 0 0 Z " fill="#E4DEED" transform="translate(216,544)"/>
<path d="M0 0 C0.33 0 0.66 0 1 0 C1.16820551 1.93736701 1.33451095 3.87489906 1.5 5.8125 C1.5928125 6.89144531 1.685625 7.97039062 1.78125 9.08203125 C2 12 2 12 2 15 C1.34 15 0.68 15 0 15 C0 10.05 0 5.1 0 0 Z " fill="#050607" transform="translate(640,486)"/>
<path d="M0 0 C1.32 0 2.64 0 4 0 C4 0.99 4 1.98 4 3 C2.02 3.99 2.02 3.99 0 5 C-0.5625 3.0625 -0.5625 3.0625 -1 1 C-0.67 0.67 -0.34 0.34 0 0 Z " fill="#C6B9E0" transform="translate(238,559)"/>
<path d="M0 0 C0.66 0.33 1.32 0.66 2 1 C1.67 1.99 1.34 2.98 1 4 C-0.98 4 -2.96 4 -5 4 C-5 3.34 -5 2.68 -5 2 C-2.625 0.9375 -2.625 0.9375 0 0 Z " fill="#EBEBED" transform="translate(816,529)"/>
<path d="M0 0 C3.63 0 7.26 0 11 0 C10.01 0.33 9.02 0.66 8 1 C8 1.66 8 2.32 8 3 C4.92463146 2.34099246 2.92264434 1.46132217 0 0 Z " fill="#D0CFD2" transform="translate(513,498)"/>
<path d="M0 0 C0.66 0 1.32 0 2 0 C2.33 1.65 2.66 3.3 3 5 C1.35 5 -0.3 5 -2 5 C-1.34 3.35 -0.68 1.7 0 0 Z " fill="#1A1A1F" transform="translate(773,556)"/>
<path d="M0 0 C1.03115279 3.26913624 0.9638984 5.86041348 0.5625 9.25 C0.46066406 10.14203125 0.35882812 11.0340625 0.25390625 11.953125 C0.12822266 12.96632813 0.12822266 12.96632813 0 14 C-0.33 14 -0.66 14 -1 14 C-1.22226864 12.23086176 -1.42733873 10.45955629 -1.625 8.6875 C-1.74101563 7.70136719 -1.85703125 6.71523438 -1.9765625 5.69921875 C-2 3 -2 3 0 0 Z " fill="#09090B" transform="translate(615,551)"/>
<path d="M0 0 C0.86625 0.3403125 0.86625 0.3403125 1.75 0.6875 C0.1 1.0175 -1.55 1.3475 -3.25 1.6875 C-3.91 3.6675 -4.57 5.6475 -5.25 7.6875 C-5.58 7.6875 -5.91 7.6875 -6.25 7.6875 C-6.5 5.375 -6.5 5.375 -6.25 2.6875 C-4.11319077 0.39806154 -3.15626895 -0.43837069 0 0 Z " fill="#A3A2A7" transform="translate(794.25,553.3125)"/>
<path d="M0 0 C1.98 0 3.96 0 6 0 C5.34 1.65 4.68 3.3 4 5 C3.01 4.34 2.02 3.68 1 3 C1.33 2.67 1.66 2.34 2 2 C1.34 1.34 0.68 0.68 0 0 Z " fill="#D7D8DA" transform="translate(647,498)"/>
<path d="M0 0 C0.33 0.99 0.66 1.98 1 3 C2.65 3.33 4.3 3.66 6 4 C6 4.33 6 4.66 6 5 C4.02 5 2.04 5 0 5 C-0.33 4.34 -0.66 3.68 -1 3 C-0.67 2.01 -0.34 1.02 0 0 Z " fill="#3D3C41" transform="translate(754,562)"/>
<path d="" fill="#15151A" transform="translate(0,0)"/>
</svg>
